<svg xmlns="http://www.w3.org/2000/svg" viewBox="0 0 1080 1080"><defs><style>.cls-1{fill:#ed507c;}.cls-2{fill:#ffffe9;}</style></defs><g id="Capa_2" data-name="Capa 2"><path class="cls-1" d="M841.71,464.9A122.84,122.84,0,0,0,791.42,522C774,563.5,779.75,619.41,809.92,653.1c32.24,36,107.61,63.77,130.69,79.78a59.87,59.87,0,0,1,16.88,16.76A79,79,0,0,1,963.13,760,73.7,73.7,0,0,1,968,774.4c2,10.05-1.58,27.27-15.34,36.07-13.35,8.53-32.38,5-43-4.54-18.28-16.38.93-42.15-16.69-69.1-15.08-23.08-44-27.64-50.09-28.59-5.39-.85-45.5-7.17-65.15,18.94-17.63,23.37-7.54,57.77-6.81,60.11.1.32.18.56.22.72a144.42,144.42,0,0,0,41.6,51.33c51.21,39,140.18,48.33,196.39-4.86,35.73-33.86,52-87.28,40.41-133.15-13.21-52.28-63.77-84.17-94.53-104-48.43-31.19-82.92-33.74-88.22-61.05-3.67-18.58,6.9-44.6,24.37-49.2,8.49-2.23,20.47.12,26.61,8.08,11.61,15-9,34.86.52,53.09,9.87,18.71,44.62,22.64,68.11,14.79,7-2.33,17-5.69,23.06-15.15,13.47-20.95-5.19-51.84-7.32-55.28-22.17-36.7-67.84-43-77.58-44.36C885,442.65,853.87,458,841.71,464.9Z"/><path class="cls-1" d="M797.33,344.94c-28.28-68.51-13.23-135.82,45.6-185.28C871.54,221.1,859.18,293.52,797.33,344.94Z"/><path class="cls-1" d="M762.1,487.07c-52.63-58.44-55.28-127-19.23-189.89C791,332.85,801.16,431.45,762.1,487.07Z"/><path class="cls-1" d="M888,311.41c-67,27.25-97.46,82.53-86.7,150.19C870.69,432.82,899,373.43,888,311.41Z"/><path class="cls-2" d="M874.21,555.21A36.11,36.11,0,0,0,855.28,547l-29.8-6.4-5-1.09a157.55,157.55,0,0,0-26.27-65.72,196.62,196.62,0,0,0-25-29.56q-6.69-6.6-14.18-12.8a273.55,273.55,0,0,0-30.65-22c-7.19-4.47-14.74-8.77-22.62-12.81a391.58,391.58,0,0,0-52-21.95q-21.08-7.26-44.1-12.81A625.84,625.84,0,0,0,460.1,345.66h-6.21a625.7,625.7,0,0,0-145.52,16.27q-23,5.55-44.11,12.81a392.19,392.19,0,0,0-51.9,21.95c-7.88,4-15.43,8.34-22.62,12.81a273.55,273.55,0,0,0-30.65,22q-7.47,6.19-14.18,12.8a196.62,196.62,0,0,0-25,29.56,157.61,157.61,0,0,0-26.37,65.72l-5,1.09L58.71,547a36.23,36.23,0,0,0-23.43,59.28A35.26,35.26,0,0,0,44.19,614a53.84,53.84,0,0,0,10.72,4.4,11.45,11.45,0,0,1,4.37,2.54c2.55,2.36,4.16,6.3,5.92,9.34,2,3.58,3.94,7.19,5.91,10.8,6.66,12.59,13.79,26.07,23.33,38.11a100.65,100.65,0,0,0,19.9,19.43,82.89,82.89,0,0,0,11.35,6.95,37.33,37.33,0,0,0,4.61,2l4.36,11.39c13.6,35.47,25.46,66.47,33,86.28,4.94,13,8,21.2,8.51,22.68a22.78,22.78,0,0,0,5.77,9.36,23.33,23.33,0,0,0,3.37,2.66c9,5.77,18.29,11.29,27.73,16.45A508.23,508.23,0,0,0,454.8,919.78h4.39a502.88,502.88,0,0,0,168.07-30.07,511.7,511.7,0,0,0,73.62-33.32q14.22-7.87,27.83-16.53a25.24,25.24,0,0,0,3.35-2.66,22.68,22.68,0,0,0,5.77-9.36c.48-1.48,3.57-9.68,8.54-22.74,1.53-3.94,3.23-8.5,5.08-13.38l4.91-12.81c2.58-6.8,5.42-14.15,8.39-21.95,1.58-4.14,3.21-8.44,4.93-12.81,2.68-7.06,5.5-14.41,8.37-22l1.28-3.31,3.65-9.49.71-2c1.53-.62,3.09-1.29,4.59-2a85.42,85.42,0,0,0,11.35-6.93,101.1,101.1,0,0,0,20-19.43c9.54-12,16.69-25.62,23.35-38.13,2-3.61,3.84-7.21,5.91-10.8,1.68-3,3.29-7,5.82-9.34a12.09,12.09,0,0,1,4.39-2.54,52.84,52.84,0,0,0,10.7-4.4,35.32,35.32,0,0,0,8.93-7.64A36.22,36.22,0,0,0,874.21,555.21Z"/><g id="ContornoPay"><path class="cls-1" d="M720.07,759a3,3,0,0,0-3.16,2.23,2.41,2.41,0,0,0,0,.38c-.2,2-.45,3.95-.69,5.92a11.28,11.28,0,0,1-.2,1.42,276.08,276.08,0,0,1-8.25,39.75c-1.58,5.55-3.34,11.07-5.27,16.52,2.5-1.4,5-2.88,7.5-4.4-.14.49-.32,1-.49,1.48l.27-.16c.16-.49.32-1,.5-1.48,1.1-3.43,2.17-6.87,3.14-10.34a278.48,278.48,0,0,0,7.89-36.9c.56-3.74,1.05-7.47,1.44-11.2A3,3,0,0,0,720.07,759Zm-23.69,30.45a2.89,2.89,0,0,0-3.27,2.48V792c-.12.89-.22,1.76-.34,2.65l-.47,3.34c-1.13,7.68-2.59,15.3-4.42,22.78-1.23,4.92-2.57,9.87-4.07,14.67,2.37-1.2,4.76-2.45,7.11-3.75-.14.43-.26.87-.38,1.32h0c.12-.45.26-.91.4-1.34.87-3.14,1.72-6.28,2.47-9.42,1.83-7.58,3.33-15.28,4.46-23,.18-1.22.33-2.45.53-3.67s.24-1.84.34-2.77a2.87,2.87,0,0,0-2.32-3.32h0Zm-22.57,21.12a3,3,0,0,0-3.24,2.37.67.67,0,0,0,0,.2c-.12,1.15-.25,2.29-.43,3.44l-.36,2.62a192.9,192.9,0,0,1-4.42,21.32c-.4,1.49-.83,2.95-1.26,4.41,2.31-1,4.58-2.1,6.85-3.16a12.21,12.21,0,0,1-.34,1.18h.18a4.08,4.08,0,0,1,.22-.79c.06-.25,0-.27.09-.39a195.22,195.22,0,0,0,4.94-25c.12-.93.24-2,.34-2.84a2.89,2.89,0,0,0-2.36-3.33ZM649,728c-5.17,3.06-10.4,6.44-15.79,9.88-19.21,12.43-39,25.27-62.16,28a58.75,58.75,0,0,1-7.26.48l-1.31.35-1.48.61h1.48a70,70,0,0,0,8.45-.47c23.16-2.78,43-15.54,62.18-27.88,5.62-3.61,11.09-7.16,16.5-10.32a5.13,5.13,0,0,1-.61-.54ZM471.87,873.22a2.92,2.92,0,0,0-3,2.13,3.29,3.29,0,0,0-.12.61l-.43,7.49v1h0v-1c2,.1,3.95.13,5.8.15l.44-7.3A2.91,2.91,0,0,0,471.87,873.22Zm-22.55-25.17h0a2.89,2.89,0,0,0-2.8,2.19,2.25,2.25,0,0,0-.14.73l-.69,31.25v1h.12v-1c1.6.12,3.2.26,4.8.34h1l.7-31.59a2.9,2.9,0,0,0-2.89-2.92Zm-22.54,32.28-1-8.53a3,3,0,0,0-3.28-2.59,2.91,2.91,0,0,0-2.47,2,3.23,3.23,0,0,0-.11,1.2l.86,7.09.14,1.1h.24l-.12-1.1Zm-.6-132.15c-3.75,1.05-7.5,2.21-11.23,3.44-13.68,5.25-25.19,9.46-36.35,11.23a107.78,107.78,0,0,1-25.33,3.44,66.31,66.31,0,0,1-8.45-.5,85.06,85.06,0,0,1-9.24-1.63l-2.9.27a81.83,81.83,0,0,0,12,2.35,70,70,0,0,0,8.43.48c17.54,0,35.38-5.93,52.78-11.71,6.85-2.29,13.82-4.62,20.73-6.54a4.79,4.79,0,0,1-.46-.79ZM236.64,820.27c-.53-3.1-1-6.22-1.34-9.32a2.9,2.9,0,0,0-3.19-2.58H232a2.86,2.86,0,0,0-2.44,2,2.57,2.57,0,0,0-.14,1.2c.22,1.74.43,3.47.71,5.23a7.15,7.15,0,0,0,.18,1.29.7.7,0,0,0,.29.13,12.45,12.45,0,0,0-.19-1.26c2,1.22,4.1,2.31,6.18,3.46Zm-20.41-9.87a8.1,8.1,0,0,0-.28-1.35c-1.28-6.39-2.33-12.87-3.14-19.31a2.94,2.94,0,0,0-3.25-2.56,3,3,0,0,0-2.59,3.25c.61,4.94,1.38,9.88,2.29,14.77a6,6,0,0,0,.24,1.33l.23,1.34.36.2-.24-1.33c2.12,1.33,4.23,2.53,6.36,3.79Zm503.86-51.52a3,3,0,0,0-3.16,2.23,2.41,2.41,0,0,0,0,.38c-.2,2-.45,4-.69,5.92a11.28,11.28,0,0,1-.2,1.42,276.08,276.08,0,0,1-8.25,39.75c-1.58,5.55-3.34,11.07-5.27,16.52,2.5-1.4,5-2.88,7.5-4.4-.14.49-.32,1-.49,1.48l.27-.16c.16-.49.32-1,.5-1.48,1.1-3.43,2.17-6.87,3.14-10.34a278.48,278.48,0,0,0,7.89-36.9c.56-3.73,1-7.47,1.44-11.2a3,3,0,0,0-2.7-3.14ZM696.4,789.33a2.89,2.89,0,0,0-3.27,2.48v.07c-.12.88-.22,1.75-.34,2.64l-.47,3.34c-1.13,7.68-2.59,15.3-4.42,22.78-1.23,4.92-2.57,9.87-4.07,14.67,2.37-1.2,4.76-2.45,7.11-3.75-.14.43-.26.87-.38,1.32h0c.12-.45.26-.91.4-1.34.87-3.14,1.71-6.28,2.47-9.42,1.83-7.58,3.33-15.28,4.46-23,.17-1.22.33-2.45.53-3.67s.24-1.84.34-2.76a2.86,2.86,0,0,0-2.41-3.26h0Zm-22.59,21.2a3,3,0,0,0-3.24,2.37.67.67,0,0,0,0,.2c-.12,1.15-.25,2.29-.43,3.44l-.36,2.62a192.9,192.9,0,0,1-4.42,21.32c-.4,1.49-.83,2.95-1.26,4.41,2.31-1,4.58-2.1,6.85-3.16a12.21,12.21,0,0,1-.34,1.18h.18a4.08,4.08,0,0,1,.22-.79c.06-.25,0-.27.09-.39a195.22,195.22,0,0,0,4.94-25c.12-.93.24-2,.34-2.84a2.89,2.89,0,0,0-2.36-3.33ZM633.3,737.9c-19.27,12.41-39,25.25-62.22,27.93a58.75,58.75,0,0,1-7.26.48l-1.31.35-1.48.61h1.48a70,70,0,0,0,8.45-.47c23.16-2.78,43-15.54,62.18-27.88,5.62-3.61,11.09-7.16,16.5-10.32A5.4,5.4,0,0,1,649,728c-5.17,3.08-10.4,6.46-15.73,9.92ZM471.87,873.22a2.92,2.92,0,0,0-3,2.13,3.29,3.29,0,0,0-.12.61l-.43,7.49v1h0v-1c2,.1,3.95.13,5.8.15l.44-7.3A2.91,2.91,0,0,0,471.87,873.22Zm-22.55-25.17h0a2.89,2.89,0,0,0-2.8,2.19,2.25,2.25,0,0,0-.14.73l-.69,31.25v1h.12v-1c1.6.12,3.2.26,4.8.34h1l.7-31.59a2.9,2.9,0,0,0-2.89-2.92Zm-23.57,23.69a3,3,0,0,0-3.28-2.59,2.93,2.93,0,0,0-2.47,2,3.25,3.25,0,0,0-.11,1.2l.86,7.09.14,1.1h.24l-.12-1.1,5.77.73Zm.43-123.62c-3.75,1-7.5,2.21-11.23,3.44-13.68,5.25-25.19,9.46-36.35,11.23a107.78,107.78,0,0,1-25.33,3.44,66.31,66.31,0,0,1-8.45-.5,85.06,85.06,0,0,1-9.24-1.63l-2.9.27a81.83,81.83,0,0,0,12,2.35,70,70,0,0,0,8.43.48c17.54,0,35.38-5.93,52.78-11.71,6.85-2.29,13.82-4.62,20.73-6.54a5,5,0,0,1-.46-.73Zm-190.9,62.77a2.9,2.9,0,0,0-3.19-2.58H232a2.86,2.86,0,0,0-2.44,2,2.57,2.57,0,0,0-.14,1.2c.22,1.74.43,3.48.71,5.23a7.15,7.15,0,0,0,.18,1.29.59.59,0,0,0,.29.13c0-.39-.14-.82-.19-1.26,2,1.11,4.12,2.19,6.2,3.24-.54-2.92-1-6-1.35-9.14ZM215.93,809c-1.28-6.39-2.33-12.87-3.14-19.31a2.94,2.94,0,0,0-3.25-2.56,3,3,0,0,0-2.59,3.25c.61,4.94,1.38,9.88,2.29,14.77a6,6,0,0,0,.24,1.33l.23,1.34.36.2-.24-1.33c2.14,1.25,4.25,2.45,6.38,3.66-.1-.36-.2-.79-.28-1.25ZM856.87,546.82,827,540.4l-5-1.09a157.94,157.94,0,0,0-26.32-65.84,197.41,197.41,0,0,0-25.06-29.62q-6.71-6.62-14.21-12.83a273.12,273.12,0,0,0-30.7-22c-7.21-4.49-14.77-8.79-22.67-12.84a390.43,390.43,0,0,0-52.1-22q-21.1-7.29-44.19-12.84a626.56,626.56,0,0,0-145.81-16.3h-6.22a626.48,626.48,0,0,0-145.8,16.3q-23.09,5.55-44.19,12.84a391.8,391.8,0,0,0-52,22c-7.9,4.05-15.46,8.35-22.67,12.84a272.21,272.21,0,0,0-30.7,22q-7.48,6.23-14.22,12.83a197.94,197.94,0,0,0-25,29.62,157.73,157.73,0,0,0-26.42,65.84l-5,1.09-29.84,6.42A36.29,36.29,0,0,0,35.3,606.21a35.39,35.39,0,0,0,8.92,7.66A54,54,0,0,0,55,618.27a11.42,11.42,0,0,1,4.39,2.55c2.54,2.37,4.16,6.31,5.92,9.35L71.19,641c6.68,12.62,13.82,26.13,23.38,38.19a100.79,100.79,0,0,0,19.94,19.47,84.24,84.24,0,0,0,11.37,7,36.82,36.82,0,0,0,4.62,2L134.87,719c13.62,35.54,25.5,66.6,33,86.44,5,13,8.05,21.24,8.53,22.72a22.54,22.54,0,0,0,5.78,9.38,23.63,23.63,0,0,0,3.38,2.67c9,5.78,18.32,11.31,27.78,16.48a509.21,509.21,0,0,0,73.84,33.47,504.23,504.23,0,0,0,168.39,30.13H460a504.32,504.32,0,0,0,168.39-30.13,512.59,512.59,0,0,0,73.76-33.39q14.24-7.89,27.88-16.56a27,27,0,0,0,3.36-2.67,22.64,22.64,0,0,0,5.78-9.38c.47-1.48,3.57-9.69,8.55-22.78,1.54-4,3.24-8.51,5.09-13.41l4.92-12.83c2.59-6.81,5.43-14.18,8.41-22,1.58-4.15,3.22-8.45,4.94-12.84,2.68-7.07,5.51-14.43,8.39-22l1.28-3.32,3.65-9.52.71-2c1.54-.61,3.1-1.28,4.6-2a85.88,85.88,0,0,0,11.38-6.95,101.23,101.23,0,0,0,20.08-19.47c9.55-12.06,16.72-25.67,23.39-38.2,2-3.62,3.85-7.23,5.93-10.82,1.67-3.05,3.29-7,5.82-9.36a12.16,12.16,0,0,1,4.4-2.55,53,53,0,0,0,10.72-4.4,35.52,35.52,0,0,0,8.95-7.66,36.28,36.28,0,0,0-23.54-59.31ZM731.42,807.12c-.22.59-.43,1.12-.63,1.68h0c-.22.55-.43,1.08-.61,1.59-.54,1.39-1,2.69-1.44,3.86h0c-.46,1.16-.83,2.21-1.21,3.15h0c-.79,2.1-1.38,3.66-1.72,4.7a.85.85,0,0,0-.09.22c-.2.49-.32.87-.4,1.09a8.61,8.61,0,0,1-3.39,4.5h0l-1.15.75L717,831.11c-4.44,2.74-9,5.35-13.49,7.89l.42-1a.33.33,0,0,0,0-.14l.57-1.38q2.55-6.42,4.78-13l.51-1.49c.16-.49.32-1,.5-1.48,1.1-3.43,2.17-6.87,3.14-10.34a278.48,278.48,0,0,0,7.89-36.9c.56-3.73,1.05-7.47,1.44-11.2a2.94,2.94,0,0,0-5.78-1,2.29,2.29,0,0,0,0,.37c-.2,2-.45,4-.69,5.92a11.71,11.71,0,0,1-.2,1.43,276.23,276.23,0,0,1-8.25,39.74c-1.58,5.55-3.34,11.08-5.27,16.53-.16.49-.34,1-.52,1.46l-.53,1.48c-1.3,3.59-2.68,7.12-4.15,10.64a17.13,17.13,0,0,1-3.17,3.47h0a41.14,41.14,0,0,1-3.1,2.81h0a32.39,32.39,0,0,1-5.51,4l.39-1.11a.67.67,0,0,0,0-.2c.16-.47.36-.94.52-1.42,1.38-4,2.7-7.9,3.94-12h0c.14-.5.3-1,.44-1.42l.39-1.35c.87-3.14,1.72-6.27,2.47-9.41,1.84-7.59,3.34-15.29,4.46-23,.18-1.22.34-2.44.54-3.67s.23-1.83.33-2.76a2.86,2.86,0,0,0-2.42-3.25h-.1a2.89,2.89,0,0,0-3.27,2.48v.07c-.12.89-.22,1.75-.34,2.64l-.47,3.34c-1.13,7.68-2.59,15.3-4.42,22.78-1.23,4.92-2.57,9.88-4.07,14.67-.12.44-.24.85-.4,1.29a10.53,10.53,0,0,1-.47,1.44c-1.26,4.07-2.69,8.11-4.17,12.08-.19.48-.35.95-.53,1.4s-.31.81-.47,1.23v.12l-3.73,2H674c-2.59,1.28-5.15,2.59-7.78,3.79l-.28.1v-.1a8.33,8.33,0,0,0,.36-1,1.64,1.64,0,0,0,.14-.39,12.17,12.17,0,0,0,.47-1.32c1.38-3.95,2.63-7.9,3.71-11.85.14-.45.3-.93.4-1.38s.15-.54.21-.79,0-.28.1-.4a196.46,196.46,0,0,0,4.94-25c.12-.93.24-2,.33-2.85A2.88,2.88,0,0,0,674,810.3H674a3,3,0,0,0-3.24,2.37.61.61,0,0,0,0,.19c-.12,1.15-.26,2.29-.43,3.44l-.36,2.62a193.05,193.05,0,0,1-4.58,21.56c-.4,1.49-.83,2.95-1.26,4.41-.12.41-.22.81-.34,1.18s-.3.93-.43,1.38c-1.27,4.07-2.65,8.06-4.15,12l-.53,1.32h0c-.16.47-.36.93-.54,1.4h0c-4.68,2.1-9.39,4.09-14.11,6-2.33,1-4.64,2-7,2.83h-.2q-3.31,1.34-6.63,2.56c-2.22.83-4.23,1.58-6.34,2.35A506,506,0,0,1,574.48,891,488.55,488.55,0,0,1,524,900.88a5.83,5.83,0,0,1-.73.1c-1.58.24-3.14.45-4.72.65q-22.68,2.91-45.58,3.71v-.49l1.14-19.31v-2l.44-7.31a2.91,2.91,0,0,0-2.72-3.08h-.05a2.92,2.92,0,0,0-3,2.13,3.29,3.29,0,0,0-.12.61l-.43,7.49v2l-1.11,19.07v1c-3.08,0-6.16.16-9.26.16-2.29,0-4.58,0-6.87-.12v-.18l.48-20.61v-2.07l.69-31.59a2.9,2.9,0,0,0-2.82-3h0a2.89,2.89,0,0,0-2.8,2.19,2.25,2.25,0,0,0-.14.73l-.69,31.25v2.08l-.45,20.19v1c-5.12-.16-10.23-.37-15.34-.71h0l-2.71-22.27-.12-1-.14-1.08-1-8.53a3,3,0,0,0-3.28-2.59,2.91,2.91,0,0,0-2.47,2,3.09,3.09,0,0,0-.12,1.21l.87,7.09.14,1.1.12,1,2.63,21.72.11,1-1.71-.13q-12.51-.9-24.94-2.51a495.27,495.27,0,0,1-55.89-10.54A511.58,511.58,0,0,1,292,876.14q-21.51-7.8-42.18-17.41l-3.06-1.54a187.79,187.79,0,0,1-6.12-18.82c-1.34-5.11-2.5-10.27-3.43-15.48h0a8.49,8.49,0,0,0-.24-1.24c-.06-.42-.14-.87-.2-1.3-.53-3.1-1-6.22-1.34-9.32a2.9,2.9,0,0,0-3.2-2.58h-.06a2.88,2.88,0,0,0-2.45,2,2.76,2.76,0,0,0-.13,1.21c.21,1.74.43,3.47.71,5.23a7.87,7.87,0,0,0,.17,1.28l.18,1.27c1.09,6.87,2.53,13.7,4.29,20.41,1.1,4.11,2.37,8.24,3.73,12.32.16.44.29.83.43,1.27-3.95-2-8.07-4.07-12.06-6.2a245.48,245.48,0,0,1-8.87-28.67c-.53-2.25-1.06-4.52-1.54-6.79l-.27-1.33a8.2,8.2,0,0,0-.28-1.34c-1.28-6.4-2.33-12.87-3.14-19.31a3,3,0,0,0-3.26-2.56,3,3,0,0,0-2.58,3.25c.61,4.94,1.38,9.88,2.29,14.77a5.8,5.8,0,0,0,.24,1.32l.23,1.35c.79,4,1.66,8,2.61,12,1.78,7.35,3.95,14.67,6.36,21.84.11.43.27.85.41,1.26-1.24-.69-2.59-1.36-3.85-2.09-2.21-1.26-4.34-2.57-6.52-3.95a.81.81,0,0,0-.11-.43,286.64,286.64,0,0,1-10.47-30.11,280.92,280.92,0,0,1-9.14-47.13,2.94,2.94,0,0,0-5.84.61,288.25,288.25,0,0,0,9.32,48.1c2.19,7.7,4.75,15.32,7.6,22.8.17.43.33.87.49,1.28-.59-.31-1.22-.65-1.8-1-1.24-.83-2.54-1.62-3.81-2.45a9.58,9.58,0,0,1-4.62-5.29c-1.24-3.74-15.16-40.18-41.79-109.7l-.16-.43-.4-1h.56a150.79,150.79,0,0,0,21,1.44h2.87c5.07,0,10.24-.12,15.49-.26,5.93-.11,11.85-.25,17.77-.19a140.09,140.09,0,0,1,35.27,3.95c13.68,3.63,27.2,12.33,41.46,21.59,15.79,10.15,32,20.58,50.19,25.53a81.83,81.83,0,0,0,12,2.35,69.84,69.84,0,0,0,8.43.48c17.53,0,35.38-5.93,52.78-11.71,6.85-2.29,13.82-4.62,20.73-6.54a120.6,120.6,0,0,1,29-5h4.44c16.25.41,33.23,5.92,49.7,11.51,16.9,5.59,34.21,11.37,51.33,11.69h1.48a70.05,70.05,0,0,0,8.45-.48c23.16-2.78,43-15.54,62.18-27.87,5.62-3.62,11.09-7.17,16.5-10.33a102.88,102.88,0,0,1,25.06-11.27c16.68-4.49,35.12-4.07,53-3.7a256.56,256.56,0,0,0,36.25-.79c1.14-.11,2.31-.29,3.43-.45h.26l-.55,1.44Q741.33,781,731.42,807.12Zm142-218.64-.12.41a1.13,1.13,0,0,1,0,.26c-.12.41-.28.81-.43,1.22a29.23,29.23,0,0,1-1.37,2.88h0a23.69,23.69,0,0,1-4,5.18c-.39.35-.77.73-1.18,1.08s-.47.36-.69.56a16.12,16.12,0,0,1-1.48,1,15.67,15.67,0,0,1-6.32,2.37,12,12,0,0,0-2,.28l-1.19.18-.93.19a9.13,9.13,0,0,0-2.92,1.17,9.45,9.45,0,0,0-2.17,2l-.49.63c-.79,1.13-1.47,2.35-2.14,3.52h0c-.77,1.26-1.62,2.47-2.48,3.65s-1.72,2.37-2.55,3.63c-1.64,2.53-3.3,5.1-4.9,7.68-.63,1-1.26,2.1-2,3.16s-1.54,2.67-2.29,4l-.3.55c-.71,1.35-1.42,2.69-2.11,4L828,640.62h0c-2.23,4.18-4.5,8.33-6.95,12.38-.73,1.28-1.52,2.55-2.29,3.79-.42.71-.85,1.36-1.29,2-1.18,2-2.42,3.72-3.73,5.55l-.79,1.11c-1.54,2.13-3.16,4.22-4.87,6.24h0a2.24,2.24,0,0,1-.42.45c-.43.53-.87,1.07-1.34,1.58a87.34,87.34,0,0,1-6.58,6.75c-.79.73-1.61,1.48-2.44,2.17-1.29,1.09-2.59,2.12-4,3.12-.87.65-1.78,1.29-2.69,1.88l-2,1.28-.85.52c-.42.25-.83.51-1.24.73-1.35.77-2.69,1.48-4.07,2.13-.67.33-1.34.63-2,1-1.52.65-3.08,1.24-4.66,1.77-.71.24-1.4.44-2.09.63-.37.14-.77.24-1.14.34l-1.68.43a91.88,91.88,0,0,1-13.19,2c-1.28.12-2.57.2-3.83.26h0c-2.59.13-5.17.23-7.76.25-6,0-12.12,0-18.16-.18l-8.08-.15c-4.68,0-9.36-.12-14,0h0c-3.08,0-6.2.17-9.3.35-.89,0-1.75.12-2.66.2-1.72.14-3.42.28-5.14.47h0c-1.69.2-3.37.42-5.07.68-1.26.17-2.57.39-3.85.63-.85.14-1.68.31-2.55.49-2.11.42-4.22.93-6.33,1.48A89.81,89.81,0,0,0,659.2,707c-2,.83-4,1.74-5.77,2.64l-3.61,1.86c-.79.41-1.6.83-2.39,1.28L645.2,714l-.85.49L642,715.84c-5.66,3.32-11.23,6.89-16.76,10.45-3,2-5.92,3.83-8.92,5.68l-1.8,1.11c-4.11,2.59-8.27,5.07-12.5,7.32l-1.6.87-1,.52c-1.05.55-2.12,1.08-3.16,1.59s-2.33,1.11-3.5,1.64h0c-1.18.54-2.35,1-3.53,1.52h0c-.89.36-1.76.71-2.67,1s-1.77.67-2.66,1-2.41.79-3.62,1.12l-2.72.73-2.73.64c-1,.19-2.09.41-3.15.57l-2.37.33c-16.94,2-35.37-4.08-54.81-10.58-2.27-.77-4.56-1.52-6.85-2.25s-4.58-1.5-6.91-2.23h0c-2.29-.71-4.6-1.38-6.93-2h0q-6.93-2-14-3.48h0c-2.33-.47-4.7-.89-7.05-1.22-.79-.12-1.58-.24-2.37-.32h-.32l-2.66-.28c-.89,0-1.8-.15-2.67-.21a1.94,1.94,0,0,0-.59,0l-2-.12h-8.67a12.8,12.8,0,0,0-2.15.12.76.76,0,0,0-.3,0,9.65,9.65,0,0,0-2.33.19c-2.19.18-4.36.44-6.53.81-1.84.28-3.66.58-5.47,1a5.7,5.7,0,0,0-1.4.28l-3.1.67c-2.08.45-4.15,1-6.22,1.52l-3,.85c-7.31,2-14.56,4.44-21.72,6.81-19.47,6.5-37.87,12.62-54.81,10.58-1.23-.16-2.45-.33-3.67-.55l-1.86-.36c-.61-.11-1.2-.25-1.82-.41-1.24-.28-2.44-.59-3.65-1s-2.41-.71-3.59-1.12-2-.69-2.94-1.07-1.62-.61-2.41-.93l-1.78-.75c-1.16-.49-2.35-1-3.51-1.58-.87-.41-1.74-.81-2.63-1.26l-2.21-1.13c-2-1-3.75-2-5.61-3-2.29-1.28-4.56-2.62-6.81-3.95-4.54-2.76-9-5.64-13.46-8.51-7.35-4.71-14.83-9.51-22.45-13.66-2.39-1.28-4.78-2.53-7.19-3.67-1.18-.58-2.39-1.13-3.61-1.66l-1.72-.73-2-.79c-.8-.3-1.59-.61-2.42-.89a54.42,54.42,0,0,0-6.42-2q-2.55-.69-5.09-1.23l-2.57-.53c-.85-.16-1.7-.32-2.55-.43-4.24-.73-8.51-1.23-12.77-1.56-.91,0-1.8-.16-2.71-.2-7.78-.49-15.57-.49-23.31-.36l-8.1.16c-6.06.12-12.14.26-18.2.18-2.59,0-5.18-.12-7.74-.26h0c-1.27,0-2.53-.14-3.83-.25a91.67,91.67,0,0,1-13.19-2c-1.13-.27-2.17-.55-3.24-.89-.57-.15-1.11-.33-1.6-.51-1.05-.34-2.11-.71-3.14-1.15a15.14,15.14,0,0,1-1.54-.63l-1.52-.69c-.89-.39-1.74-.83-2.6-1.28-1.6-.85-3.14-1.74-4.66-2.71a47.67,47.67,0,0,1-4-2.72c-1.29-1-2.73-2.09-4-3.2h0a77.13,77.13,0,0,1-7.19-6.93c-.71-.71-1.36-1.44-2-2.17l-.77-.91c-.32-.34-.59-.67-.89-1h0L106.22,670c-1.17-1.44-2.27-2.93-3.36-4.41A166.92,166.92,0,0,1,93,650.19h0c-1.84-3.13-3.57-6.31-5.27-9.51-.46-.85-.91-1.7-1.34-2.55l-2.16-4c-2.82-5.29-6.1-10.38-9.35-15.4-1.62-2.51-3.5-4.78-5-7.3a41.68,41.68,0,0,0-2.35-3.77,9.31,9.31,0,0,0-.63-.81,2.08,2.08,0,0,0-.32-.32A7.24,7.24,0,0,0,65,605.34a8.24,8.24,0,0,0-2.48-1.05,24.17,24.17,0,0,0-2.67-.51L58,603.52l-.65-.1h-.12a13.56,13.56,0,0,1-1.52-.39,9.07,9.07,0,0,1-1.32-.48h-.18l-.45-.19c-.55-.28-1.11-.56-1.64-.87s-.81-.52-1.22-.79-.73-.54-1.07-.81-.51-.46-.79-.65l-.14-.14-.81-.81c-.31-.3-.57-.61-.87-.93a12.21,12.21,0,0,1-1-1.26,5.82,5.82,0,0,1-.81-1.17.55.55,0,0,1-.18-.24,8.38,8.38,0,0,1-.79-1.32,10.68,10.68,0,0,1-.75-1.42h0a20.19,20.19,0,0,1-1.8-5.92,19.18,19.18,0,0,1,.14-6.28,21.23,21.23,0,0,1,.65-2.84,24.4,24.4,0,0,1,.89-2.39.76.76,0,0,1,.16-.34,11.2,11.2,0,0,1,.73-1.42,15.91,15.91,0,0,1,1-1.68,21,21,0,0,1,4.3-4.76,11,11,0,0,1,1-.77c.29-.21.61-.41.89-.59a6.79,6.79,0,0,1,.94-.55,8.25,8.25,0,0,1,.65-.67,10.82,10.82,0,0,1,1.43-.65c.47-.22,1-.4,1.46-.58,1-.33,2-.65,3-.89l1.06-.27,2-.46,4.2-.81q10-2,20-4.12c3.42-.71,6.86-1.48,10.25-2.27l4.58-1.05h.53a7.5,7.5,0,0,0,1-.3,6.08,6.08,0,0,0,1-.49.41.41,0,0,0,.2-.12,6.19,6.19,0,0,0,.75-.51q.42-.36.81-.75a5.7,5.7,0,0,0,.71-.91,7.44,7.44,0,0,0,1.12-3.2,17.94,17.94,0,0,1,.34-2.52l.35-2.49c.12-.85.26-1.68.42-2.51s.29-1.66.43-2.49c.32-1.66.65-3.29,1-4.93.16-.83.35-1.64.57-2.45.4-1.64.83-3.26,1.29-4.88s.94-3.22,1.48-4.82c.27-.79.53-1.59.83-2.38s.53-1.58.82-2.39c.56-1.58,1.19-3.16,1.84-4.7.3-.79.63-1.56,1-2.35s.65-1.56,1-2.33.69-1.56,1.06-2.33c1.09-2.31,2.25-4.6,3.46-6.85.37-.77.79-1.52,1.22-2.29l1.28-2.25c.42-.75.85-1.5,1.33-2.23s.9-1.49,1.38-2.22.87-1.44,1.34-2.15,1-1.52,1.5-2.27,1-1.46,1.5-2.19l1.62-2.29c.46-.63.93-1.26,1.4-1.88,1.09-1.48,2.23-3,3.38-4.42.55-.71,1.1-1.4,1.7-2.11s1.16-1.38,1.73-2.09c1.17-1.39,2.39-2.79,3.64-4.15a194.7,194.7,0,0,1,16.13-16c.73-.69,1.46-1.33,2.19-2l2.27-2c1.48-1.28,3-2.53,4.56-3.77l2.41-1.86c.61-.51,1.22-1,1.86-1.48,1.79-1.34,3.59-2.68,5.43-4q5-3.61,10.38-7.11c1.56-1,3.16-2,4.76-3q6.27-3.94,13-7.64l4.84-2.66,3.95-2,2.86-1.46a380,380,0,0,1,51.17-21.2c2.31-.77,4.66-1.56,7-2.27q7-2.28,14.34-4.29c2.41-.71,4.85-1.38,7.3-2l7.41-2h.23c2.41-.59,4.86-1.18,7.29-1.73,2.11-.5,4.22-1,6.36-1.45l3-.63c2-.43,3.95-.83,5.92-1.22,2.59-.53,5.17-1,7.76-1.52q3.43-.66,6.87-1.23c.87-.17,1.72-.31,2.61-.45h0l5.72-.93c5.45-.89,11-1.68,16.57-2.39,2.7-.35,5.41-.71,8.13-1,14-1.64,28.24-2.83,42.73-3.52,2-.1,3.75-.18,5.64-.23h3c2.4-.1,4.79-.16,7.22-.22s5.47-.12,8.21-.16h24.21c3.08,0,5.49,0,8.21.16s4.82.12,7.23.22h3c2,0,3.77.13,5.65.23,14.49.69,28.76,1.88,42.72,3.52,2.69.29,5.37.65,8,1q11,1.41,21.72,3.26c1.22.18,2.43.38,3.65.61Q593.15,373.18,615,379c2.23.57,4.43,1.2,6.62,1.83s4.85,1.36,7.24,2.09,4.94,1.49,7.41,2.28l5.17,1.67c2.43.81,4.84,1.62,7.23,2.47l3,1.09c1.52.53,3,1.08,4.5,1.66l.91.31c1.5.55,3,1.13,4.42,1.72,1,.33,2,.73,2.88,1.1,1.86.74,3.71,1.49,5.53,2.26q6.51,2.71,12.77,5.58l.68.32c2,.85,3.73,1.72,5.56,2.62,4.07,2,8.1,3.95,12,6.15,2,1.06,3.95,2.13,5.92,3.21s3.85,2.18,5.75,3.32l4.18,2.51,4.09,2.56h0c4.5,2.87,8.84,5.83,13,8.83,5.92,4.21,11.37,8.57,16.58,13.05,1.47,1.3,2.93,2.57,4.35,3.95h0l4.18,3.95c.87.83,1.74,1.7,2.61,2.56s1.72,1.7,2.53,2.57l2.47,2.61,2.17,2.37c.87.94,1.71,2,2.56,2.92s1.52,1.76,2.25,2.66l2.2,2.71h0l2,2.66c2,2.69,4,5.39,5.82,8.12a.48.48,0,0,1,.12.22c1.27,1.85,2.47,3.77,3.64,5.64s2.27,3.85,3.33,5.77l2,3.63c.65,1.21,1.22,2.45,1.81,3.67,1.21,2.47,2.31,5,3.36,7.47.61,1.5,1.2,3,1.78,4.5s1.1,3,1.62,4.58c1,3.08,2,6.16,2.76,9.28.24.85.45,1.7.65,2.56.53,2.28,1,4.59,1.46,6.9.3,1.57.56,3.17.81,4.79s.44,3.2.63,4.82a5.42,5.42,0,0,0,0,.57l.14.58.2.53a7,7,0,0,0,1.44,2.41l.57.55a4.34,4.34,0,0,0,.64.49,2.91,2.91,0,0,0,.67.42,3.61,3.61,0,0,0,.71.35l.81.3.47.14h.32l8.45,2,6.37,1.38c3.34.75,6.7,1.45,10,2.12l3.66.75,6.39,1.26c2,.38,3.83.71,5.69,1.15l1.87.45a8.94,8.94,0,0,1,1.25.36l1.24.37,1.25.45a21.86,21.86,0,0,1,3.81,2l.91.61a22.06,22.06,0,0,1,8.88,20.46,4.31,4.31,0,0,1-.1.61A12.13,12.13,0,0,1,873.42,588.48Zm-657.21,222a8,8,0,0,0-.28-1.34c-1.28-6.4-2.33-12.87-3.14-19.31a3,3,0,0,0-3.25-2.57,3,3,0,0,0-2.59,3.26q.92,7.41,2.29,14.77a5.9,5.9,0,0,0,.24,1.32l.23,1.35.36.19-.24-1.32C212,808.07,214.08,809.27,216.21,810.53Zm20.42,9.88c-.54-3.1-1-6.22-1.35-9.32a2.9,2.9,0,0,0-3.19-2.58H232a2.87,2.87,0,0,0-2.44,2,2.62,2.62,0,0,0-.14,1.21c.22,1.74.43,3.47.71,5.23a7,7,0,0,0,.18,1.28.61.61,0,0,0,.29.14,12.45,12.45,0,0,0-.19-1.26c2,1.08,4.12,2.17,6.2,3.32Zm189.53-72.09c-3.75,1-7.5,2.21-11.23,3.44-13.68,5.25-25.19,9.45-36.35,11.23a108.31,108.31,0,0,1-25.33,3.44,68.2,68.2,0,0,1-8.45-.5,82.74,82.74,0,0,1-9.24-1.64l-2.9.28a83.16,83.16,0,0,0,12,2.35,70,70,0,0,0,8.43.47c17.54,0,35.38-5.92,52.78-11.7,6.85-2.3,13.82-4.62,20.73-6.54a5,5,0,0,1-.44-.93Zm.6,132.15-1-8.53a3,3,0,0,0-3.28-2.59,2.92,2.92,0,0,0-2.47,2,3.28,3.28,0,0,0-.11,1.21l.87,7.09.13,1.1h.24l-.12-1.1Zm22.56-32.42h0a2.89,2.89,0,0,0-2.8,2.19,2.25,2.25,0,0,0-.14.73l-.69,31.25v1h.12v-1c1.6.12,3.2.26,4.8.34h1l.7-31.59a2.9,2.9,0,0,0-2.89-2.92Zm22.55,25.17a2.92,2.92,0,0,0-3,2.13,3.29,3.29,0,0,0-.12.61l-.43,7.49v1h0v-1c2,.1,3.95.13,5.8.15l.44-7.3A2.91,2.91,0,0,0,471.87,873.22ZM649,728.06c-5.17,3.06-10.4,6.44-15.79,9.88-19.17,12.37-38.92,25.21-62.12,27.89a58.75,58.75,0,0,1-7.26.48l-1.31.35-1.48.61h1.48a70,70,0,0,0,8.45-.47c23.16-2.78,43-15.54,62.18-27.88,5.62-3.61,11.09-7.16,16.5-10.32a5.13,5.13,0,0,1-.61-.54Zm24.82,82.47a3,3,0,0,0-3.24,2.37.67.67,0,0,0,0,.2c-.12,1.15-.25,2.29-.43,3.44l-.36,2.62a192.9,192.9,0,0,1-4.42,21.32c-.4,1.49-.83,2.95-1.26,4.41,2.31-1,4.58-2.1,6.85-3.16a12.21,12.21,0,0,1-.34,1.18h.18a4.08,4.08,0,0,1,.22-.79c.06-.25,0-.27.09-.39a195.22,195.22,0,0,0,4.94-25c.12-.93.24-2,.34-2.84a2.89,2.89,0,0,0-2.36-3.33Zm22.53-21.18a2.9,2.9,0,0,0-3.27,2.48v.07c-.12.88-.22,1.75-.34,2.64l-.47,3.34c-1.13,7.68-2.59,15.3-4.42,22.78-1.23,4.92-2.57,9.87-4.07,14.67,2.37-1.2,4.76-2.45,7.11-3.75-.14.43-.26.87-.38,1.32h0c.12-.45.26-.91.4-1.34.87-3.14,1.72-6.28,2.47-9.42,1.83-7.58,3.33-15.28,4.46-23,.18-1.22.33-2.45.53-3.67s.24-1.84.34-2.77a2.86,2.86,0,0,0-2.35-3.27ZM720,758.9a3,3,0,0,0-3.16,2.23,2.41,2.41,0,0,0,0,.38c-.2,2-.45,4-.69,5.92a11.28,11.28,0,0,1-.2,1.42,276.08,276.08,0,0,1-8.25,39.75c-1.58,5.55-3.34,11.07-5.27,16.52,2.51-1.4,5-2.88,7.5-4.4-.14.49-.32,1-.49,1.48l.27-.16c.16-.49.32-1,.5-1.48,1.1-3.43,2.17-6.87,3.14-10.34a278.48,278.48,0,0,0,7.89-36.9c.56-3.74,1.05-7.47,1.44-11.2a3,3,0,0,0-2.64-3.16Z"/></g><g id="Sellado"><path class="cls-1" d="M457.73,660.07a6.54,6.54,0,0,0-4.75,2,6.46,6.46,0,0,0-2,4.8l.4,45.31a6.8,6.8,0,0,0,6.83,6.69,6.6,6.6,0,0,0,4.74-2,6.46,6.46,0,0,0,2-4.84l-.39-45.31A6.77,6.77,0,0,0,457.73,660.07Z"/><path class="cls-1" d="M116.15,588.06l.26-1.38a85.66,85.66,0,0,1,4.38-16A89.29,89.29,0,0,1,139.41,541h0a4.95,4.95,0,0,0-7.21-6.77,99.1,99.1,0,0,0-20.65,32.85,96.31,96.31,0,0,0-4.44,15.6l-11.85,6.85a5.08,5.08,0,0,0-2.33,3.06,5,5,0,0,0,3.67,6,4.79,4.79,0,0,0,1.13.14,5.12,5.12,0,0,0,2.45-.65l15-8.71A2,2,0,0,0,116.15,588.06Z"/><path class="cls-1" d="M150.72,571.63a5.2,5.2,0,0,0-3.79-.88,4.9,4.9,0,0,0-3.34,2,90.07,90.07,0,0,0-8.88,15.18,88.18,88.18,0,0,0-5.92,18.38l-11.54,9.62a5.14,5.14,0,0,0-.65,7.23,5.22,5.22,0,0,0,4,1.79,5.16,5.16,0,0,0,3.26-1.16l13.82-11.45.18-.16a2.13,2.13,0,0,0,.39-1l.16-1a76.63,76.63,0,0,1,13.45-31.28A5.18,5.18,0,0,0,150.72,571.63Z"/><path class="cls-1" d="M181.46,597.3a5.29,5.29,0,0,0-9.63-1.76,90.23,90.23,0,0,0-8.57,16.85,86.7,86.7,0,0,0-4.56,16.05l-11.1,9.1a5.3,5.3,0,0,0,2.65,9.42c.21,0,.43,0,.65,0a5.5,5.5,0,0,0,3.35-1.19l13.39-11a2,2,0,0,0,.89-1.38l.2-1.18a81.77,81.77,0,0,1,12-31A5.23,5.23,0,0,0,181.46,597.3Z"/><path class="cls-1" d="M215.08,604.57a5.5,5.5,0,0,0-7.62,1.42,102.3,102.3,0,0,0-16.11,38.7l-10.09,13a5.45,5.45,0,0,0,4.35,8.8,5.48,5.48,0,0,0,4.36-2.13l11.33-14.61a2.36,2.36,0,0,0,.36-.79l.24-1a90.16,90.16,0,0,1,14.59-35.81,5.35,5.35,0,0,0,.89-4.09A5.44,5.44,0,0,0,215.08,604.57Z"/><path class="cls-1" d="M248.39,629.33a5.73,5.73,0,0,0-7.78,1.61,82.74,82.74,0,0,0-6.41,11.53v.12a62.94,62.94,0,0,0-2.53,6.34,61.89,61.89,0,0,0-2.8,11.85l-7.21,16.64a6.21,6.21,0,0,0,0,4.29,5.7,5.7,0,0,0,3.08,3.13,5.61,5.61,0,0,0,7.36-2.94l0-.06,7.62-17.77a1.76,1.76,0,0,0,.12-.45l.12-.69a57.81,57.81,0,0,1,2.41-10.39c.77-2.23,1.54-3.94,2-5.13l.16-.32a69.37,69.37,0,0,1,5.47-9.87,5.41,5.41,0,0,0,.87-4.24A5.6,5.6,0,0,0,248.39,629.33Z"/><path class="cls-1" d="M280.67,645.3a5.77,5.77,0,0,0-7.52,3.45c-2,5.57-3.55,10.21-4.86,14.61-1.24,3.95-2.44,8-3.69,13.47-.85,3.67-1.6,7.58-2.27,11.63a5.92,5.92,0,0,0,5,6.67,5.21,5.21,0,0,0,.79,0,5.93,5.93,0,0,0,5.78-5c.63-3.83,1.34-7.47,2.09-10.82,1.27-5.43,2.49-9.46,3.48-12.72,1.44-4.74,3-9.44,4.68-14a5.89,5.89,0,0,0-.2-4.46A5.5,5.5,0,0,0,280.67,645.3Z"/><path class="cls-1" d="M318.44,652.11a6,6,0,0,0-4.52.47,5.92,5.92,0,0,0-2.92,3.58l-3.59,12a.54.54,0,0,0,0,.18l-2.23,11.25-4.11,15.21a6,6,0,0,0,4.2,7.4,5.77,5.77,0,0,0,1.6.22,6.06,6.06,0,0,0,5.93-4.49L317,682.38l2.21-11.08,3.52-11.71a6.07,6.07,0,0,0-4.09-7.5Z"/><path class="cls-1" d="M351.83,660.26a6.24,6.24,0,0,0-7.74,4.21A91.19,91.19,0,0,0,341.54,676a81.71,81.71,0,0,0-.94,12.5l-3,15.16a6.22,6.22,0,0,0,.91,4.62,6,6,0,0,0,3.83,2.63,4.51,4.51,0,0,0,1.36.15,6.26,6.26,0,0,0,6.11-5L353,690.18v-1a75.34,75.34,0,0,1,.77-11.33A71.29,71.29,0,0,1,356,668h0A6.27,6.27,0,0,0,351.83,660.26Z"/><path class="cls-1" d="M391.69,657.58a6.44,6.44,0,0,0-4.84,1,6.56,6.56,0,0,0-2.6,4.06c-.93,5-1.72,10.15-2.31,15.28-.32,3-.48,5.24-.63,7.53-.18,2.78-.38,5.19-.83,8.82l-2,15.3a6.61,6.61,0,0,0,1.33,4.76,6.44,6.44,0,0,0,4.18,2.37,4,4,0,0,0,.85,0,6.36,6.36,0,0,0,6.34-5.61l2-15.26c.52-4.1.71-7,.87-9.63,0-.65.12-1.29.16-2,.12-1.52.24-3.08.47-5,.56-4.8,1.27-9.62,2.16-14.32h0a6.41,6.41,0,0,0-5.14-7.44Z"/><path class="cls-1" d="M422.67,671.54a6.56,6.56,0,0,0-6.57,6.32l-1.37,33.95a6.64,6.64,0,0,0,1.76,4.76,6.51,6.51,0,0,0,4.66,2.08h.18a6.47,6.47,0,0,0,6.53-6.28l1.4-34A6.74,6.74,0,0,0,422.67,671.54Z"/><path class="cls-1" d="M822.16,591.56a5,5,0,0,0-2.33-3L808,581.68a98.41,98.41,0,0,0-25.14-48.43,4.94,4.94,0,0,0-8.51,3.24,4.86,4.86,0,0,0,1.33,3.53,89.45,89.45,0,0,1,18.62,29.62,87.89,87.89,0,0,1,4.4,16.09l.24,1.32a2,2,0,0,0,1,1.39l15,8.72a5,5,0,0,0,6.73-1.83h0A4.89,4.89,0,0,0,822.16,591.56Z"/><path class="cls-1" d="M786.37,605.3a85.3,85.3,0,0,0-14.79-33.55,5,5,0,0,0-3.3-2,5,5,0,0,0-3.83.91,5.15,5.15,0,0,0-1.12,7.12,76.75,76.75,0,0,1,13.42,31.26l.2,1.08a2,2,0,0,0,.67,1.21l13.82,11.53a5.23,5.23,0,0,0,3.28,1.16,5,5,0,0,0,3.95-1.87A5.12,5.12,0,0,0,798,615Z"/><path class="cls-1" d="M767.57,636.51l-11.13-9.1a94.08,94.08,0,0,0-13.13-32.91,5.33,5.33,0,0,0-7.37-1.58,5.39,5.39,0,0,0-1.56,7.34,82.64,82.64,0,0,1,11.93,30.92l.22,1.21a1.94,1.94,0,0,0,.69,1.16l13.6,11.16a5.42,5.42,0,0,0,3.34,1.2,5.29,5.29,0,0,0,5.29-5.29c0-.21,0-.42,0-.63A5.15,5.15,0,0,0,767.57,636.51Z"/><path class="cls-1" d="M723.76,643.74a104.32,104.32,0,0,0-4.32-15.8,102.08,102.08,0,0,0-11.85-22.86,5.49,5.49,0,0,0-3.45-2.31,5.64,5.64,0,0,0-4.19.87,5.5,5.5,0,0,0-1.38,7.6,91.25,91.25,0,0,1,10.5,20.44A95.13,95.13,0,0,1,713.18,647l.1.71a2.05,2.05,0,0,0,.39.91l11.47,14.92a5.51,5.51,0,0,0,4.33,2.13,5.29,5.29,0,0,0,3.35-1.16,5.52,5.52,0,0,0,1-7.7Z"/><path class="cls-1" d="M686.33,659.69a67,67,0,0,0-2.85-11.84,62.42,62.42,0,0,0-2.58-6.48,82.68,82.68,0,0,0-6.42-11.53,5.7,5.7,0,0,0-7.9-1.54,5.59,5.59,0,0,0-2.41,3.59,5.66,5.66,0,0,0,.85,4.25,70.62,70.62,0,0,1,5.51,9.87,46.08,46.08,0,0,1,2.15,5.43,52.1,52.1,0,0,1,2.43,10.46v.4c0,.15.09.29.14.43l7.64,17.91a5.67,5.67,0,0,0,5.21,3.43,5.41,5.41,0,0,0,2.24-.45,5.76,5.76,0,0,0,3-3.08h0a5.82,5.82,0,0,0,0-4.34Z"/><path class="cls-1" d="M650.51,675.8c-1.34-5.78-2.62-10.07-3.67-13.48-1.5-4.94-3.14-9.87-4.88-14.57a5.9,5.9,0,0,0-3-3.32,5.75,5.75,0,0,0-4.42-.2,5.92,5.92,0,0,0-3.53,7.48c1.65,4.62,3.23,9.34,4.66,14l.09.3c1,3.41,2.2,7.28,3.36,12.38.89,3.73,1.58,7.36,2.11,10.84a5.92,5.92,0,0,0,5.79,4.91h1a5.94,5.94,0,0,0,3.75-2.35,5.74,5.74,0,0,0,1-4.36C652.07,683.13,651.32,679.34,650.51,675.8Z"/><path class="cls-1" d="M610.08,678.72l-2.25-11.21v-.18l-3.68-12.18a6,6,0,1,0-11.47,3.46l3.46,11.57,2.09,11a.33.33,0,0,1,0,.14L602.44,697a5.91,5.91,0,0,0,5.8,4.44,5.11,5.11,0,0,0,1.6-.22,5.75,5.75,0,0,0,3.61-2.78,6,6,0,0,0,.62-4.56Z"/><path class="cls-1" d="M574.54,687.77a91.08,91.08,0,0,0-1-12.78A79.94,79.94,0,0,0,571,663.44a6.22,6.22,0,0,0-11.41-1.2,6.45,6.45,0,0,0-.51,4.74,70.8,70.8,0,0,1,2.23,9.87,78.52,78.52,0,0,1,.81,11.25v.42a1.57,1.57,0,0,0,0,.53l3.22,16.05a6.27,6.27,0,0,0,6.1,5,5,5,0,0,0,1.28-.16,6.09,6.09,0,0,0,3.95-2.63,6.28,6.28,0,0,0,.93-4.66Z"/><path class="cls-1" d="M534.64,693.26c-.4-3-.56-5.24-.71-7.37l-.12-1.56c-.16-2.21-.3-4.48-.63-7.44-.62-5.12-1.39-10.23-2.31-15.22a6.44,6.44,0,0,0-2.69-4.13,6.4,6.4,0,0,0-8.86,1.68,6.38,6.38,0,0,0-1,4.8c.91,5,1.64,9.87,2.15,14.33.32,2.63.45,4.62.61,7V686c.18,2.41.38,5.13.85,8.84l2,15.31a6.42,6.42,0,0,0,6.35,5.58,4,4,0,0,0,.85,0,6.27,6.27,0,0,0,4.17-2.39,6.43,6.43,0,0,0,1.32-4.75Z"/><path class="cls-1" d="M492.21,670.55a6.44,6.44,0,0,0-4.62,2.11,6.62,6.62,0,0,0-1.72,4.72l1.38,34a6.58,6.58,0,0,0,6.58,6.3h.37a6.72,6.72,0,0,0,4.5-2.13,6.83,6.83,0,0,0,1.72-4.68h0L499,676.83a6.49,6.49,0,0,0-6.66-6.29Z"/><path class="cls-1" d="M581.84,506.58l-9.24.95a197.56,197.56,0,0,1-20.06,1,156.14,156.14,0,0,1-61.93-12.08c-15.7-6.71-25.55-14.29-37-23A324.29,324.29,0,0,0,423.14,452a315.12,315.12,0,0,0-79.27-34.22l-11.23-3.2,11.61-1.12c41.46-4.09,76.78,1.64,105,17A170.87,170.87,0,0,1,473.49,447a329.28,329.28,0,0,0,27.64,19.84,385.21,385.21,0,0,0,72.07,36.41Z"/><path class="cls-1" d="M645.62,479.71l-5.51-.52a192.16,192.16,0,0,1-56.25-14.05,202.87,202.87,0,0,1-70-48.83l-3.81-4.05,5.56.34A177.82,177.82,0,0,1,591,434.42a186.63,186.63,0,0,1,51,41.14Z"/><path class="cls-1" d="M421.23,523.52l-5.69-.51a208.47,208.47,0,0,1-58.18-14.16,214.11,214.11,0,0,1-72.8-49l-3.95-4.09,5.75.37A189,189,0,0,1,364.19,478a196.59,196.59,0,0,1,53.31,41.26Z"/></g></g></svg>