<svg xmlns="http://www.w3.org/2000/svg" viewBox="0 0 1080 1080"><defs><style>.cls-1{fill:#ffffe9;}.cls-2{fill:#ed507c;}</style></defs><g id="Capa_2" data-name="Capa 2"><path class="cls-1" d="M841.71,464.92a122.84,122.84,0,0,0-50.29,57.14c-17.47,41.46-11.67,97.38,18.5,131.06,32.24,36,107.61,63.77,130.69,79.79a59.61,59.61,0,0,1,16.88,16.76,78.88,78.88,0,0,1,5.64,10.38A73.79,73.79,0,0,1,968,774.43c2,10.05-1.58,27.26-15.34,36.07-13.35,8.53-32.38,5-43-4.54-18.28-16.39.93-42.16-16.69-69.11-15.08-23.08-44-27.64-50.09-28.58-5.39-.85-45.5-7.17-65.15,18.93-17.63,23.38-7.54,57.77-6.81,60.12.1.32.18.55.22.71a144.34,144.34,0,0,0,41.6,51.33c51.21,39,140.18,48.34,196.39-4.85,35.73-33.86,52-87.29,40.41-133.15-13.21-52.29-63.77-84.17-94.53-104-48.43-31.2-82.92-33.75-88.22-61-3.67-18.58,6.9-44.6,24.37-49.2,8.49-2.23,20.47.11,26.61,8.07,11.61,15-9,34.87.52,53.09C928.15,567,962.9,571,986.39,563.09c7-2.33,17-5.69,23.06-15.14,13.47-21-5.19-51.85-7.32-55.29-22.17-36.7-67.84-43-77.58-44.36C885,442.67,853.87,458,841.71,464.92Z"/><path class="cls-1" d="M797.33,345c-28.28-68.51-13.23-135.81,45.6-185.27C871.54,221.13,859.18,293.55,797.33,345Z"/><path class="cls-1" d="M762.1,487.1c-52.63-58.44-55.28-127-19.23-189.9C791,332.88,801.16,431.48,762.1,487.1Z"/><path class="cls-1" d="M888,311.44c-67,27.24-97.46,82.53-86.7,150.19C870.69,432.84,899,373.45,888,311.44Z"/><path class="cls-1" d="M874.21,555.23a36.27,36.27,0,0,0-18.93-8.18l-29.8-6.4-5-1.08a157.5,157.5,0,0,0-26.27-65.72,196.62,196.62,0,0,0-25-29.56q-6.69-6.6-14.18-12.81a272.19,272.19,0,0,0-30.65-22c-7.19-4.47-14.74-8.77-22.62-12.81a390.26,390.26,0,0,0-52-22q-21.08-7.27-44.1-12.81A625.31,625.31,0,0,0,460.1,345.68h-6.21A625.17,625.17,0,0,0,308.37,362q-23,5.54-44.11,12.81a389.55,389.55,0,0,0-51.9,22c-7.88,4-15.43,8.34-22.62,12.81a272.19,272.19,0,0,0-30.65,22q-7.47,6.21-14.18,12.81a196.62,196.62,0,0,0-25,29.56,157.56,157.56,0,0,0-26.37,65.72l-5,1.08-29.78,6.4a36.23,36.23,0,0,0-23.43,59.28A35.3,35.3,0,0,0,44.19,614a53.8,53.8,0,0,0,10.72,4.39,11.45,11.45,0,0,1,4.37,2.54c2.55,2.37,4.16,6.31,5.92,9.34l5.91,10.8c6.66,12.59,13.79,26.07,23.33,38.11a100.38,100.38,0,0,0,19.9,19.43,83,83,0,0,0,11.35,7,37.33,37.33,0,0,0,4.61,2l4.36,11.39c13.6,35.47,25.46,66.47,33,86.27,4.94,13,8,21.2,8.51,22.68a22.72,22.72,0,0,0,5.77,9.36,23.33,23.33,0,0,0,3.37,2.66q13.55,8.67,27.73,16.46a508.81,508.81,0,0,0,73.7,33.4A503.38,503.38,0,0,0,454.8,919.81h4.39a503.38,503.38,0,0,0,168.07-30.07,512.79,512.79,0,0,0,73.62-33.32q14.22-7.89,27.83-16.54a25.24,25.24,0,0,0,3.35-2.66,22.61,22.61,0,0,0,5.77-9.36c.48-1.48,3.57-9.67,8.54-22.74,1.53-3.94,3.23-8.49,5.08-13.38l4.91-12.81c2.58-6.8,5.42-14.15,8.39-21.95,1.58-4.14,3.21-8.43,4.93-12.81,2.68-7,5.5-14.4,8.37-21.95l1.28-3.31,3.65-9.5.71-2c1.53-.61,3.09-1.28,4.59-2a84.45,84.45,0,0,0,11.35-6.94,100.55,100.55,0,0,0,20-19.43c9.54-12,16.69-25.61,23.35-38.13,2-3.6,3.84-7.21,5.91-10.8,1.68-3,3.29-7,5.82-9.34a12.24,12.24,0,0,1,4.39-2.54,52.81,52.81,0,0,0,10.7-4.39,35.57,35.57,0,0,0,8.93-7.65A36.22,36.22,0,0,0,874.21,555.23Z"/><g id="ContornoPay"><path class="cls-2" d="M720.07,759a3,3,0,0,0-3.16,2.23,2.29,2.29,0,0,0,0,.37c-.2,2-.45,3.95-.69,5.93a11.82,11.82,0,0,1-.2,1.42,276.23,276.23,0,0,1-8.25,39.74c-1.58,5.55-3.34,11.08-5.27,16.53,2.5-1.4,5-2.89,7.5-4.41-.14.5-.32,1-.49,1.49l.27-.16c.16-.5.32-1,.5-1.48,1.1-3.44,2.17-6.87,3.14-10.35a278.48,278.48,0,0,0,7.89-36.9c.56-3.73,1.05-7.46,1.44-11.19A3,3,0,0,0,720.07,759Zm-23.69,30.44a2.9,2.9,0,0,0-3.27,2.48V792c-.12.89-.22,1.76-.34,2.64l-.47,3.34c-1.13,7.68-2.59,15.3-4.42,22.79-1.23,4.91-2.57,9.87-4.07,14.67,2.37-1.21,4.76-2.45,7.11-3.76-.14.44-.26.87-.38,1.33h0c.12-.46.26-.91.4-1.35.87-3.14,1.72-6.27,2.47-9.41,1.83-7.59,3.33-15.29,4.46-23,.18-1.23.33-2.45.53-3.68s.24-1.83.34-2.76a2.87,2.87,0,0,0-2.32-3.33h0Zm-22.57,21.13a3,3,0,0,0-3.24,2.37.61.61,0,0,0,0,.19c-.12,1.15-.25,2.29-.43,3.44l-.36,2.63a193.85,193.85,0,0,1-4.42,21.32c-.4,1.48-.83,2.94-1.26,4.4,2.31-1,4.58-2.09,6.85-3.16-.09.4-.21.8-.34,1.19h.18a3.72,3.72,0,0,1,.22-.79c.06-.26,0-.28.09-.4a194.73,194.73,0,0,0,4.94-25c.12-.93.24-2,.34-2.85a2.88,2.88,0,0,0-2.36-3.32ZM649,728c-5.17,3.06-10.4,6.44-15.79,9.87-19.21,12.44-39,25.27-62.16,28a58.74,58.74,0,0,1-7.26.47l-1.31.36-1.48.61h1.48a72.16,72.16,0,0,0,8.45-.47c23.16-2.79,43-15.54,62.18-27.88,5.62-3.62,11.09-7.17,16.5-10.33a6.09,6.09,0,0,1-.61-.53ZM471.87,873.24a2.94,2.94,0,0,0-3,2.14,3.14,3.14,0,0,0-.12.61l-.43,7.48v1h0v-1c2,.1,3.95.14,5.8.16l.44-7.31A2.91,2.91,0,0,0,471.87,873.24Zm-22.55-25.17h0a2.91,2.91,0,0,0-2.8,2.19,2.3,2.3,0,0,0-.14.73l-.69,31.26v1h.12v-1c1.6.12,3.2.25,4.8.33h1l.7-31.59a2.9,2.9,0,0,0-2.89-2.92Zm-22.54,32.28-1-8.53a3,3,0,0,0-3.28-2.58,2.9,2.9,0,0,0-2.47,2,3.25,3.25,0,0,0-.11,1.2l.86,7.09.14,1.11h.24L421,879.5Zm-.6-132.14c-3.75,1-7.5,2.21-11.23,3.43-13.68,5.25-25.19,9.46-36.35,11.24a108.3,108.3,0,0,1-25.33,3.43,66.3,66.3,0,0,1-8.45-.49,85.09,85.09,0,0,1-9.24-1.64l-2.9.28a84.54,84.54,0,0,0,12,2.35,72.06,72.06,0,0,0,8.43.47c17.54,0,35.38-5.92,52.78-11.71,6.85-2.29,13.82-4.62,20.73-6.53a5.24,5.24,0,0,1-.46-.79ZM236.64,820.29c-.53-3.1-1-6.22-1.34-9.32a2.9,2.9,0,0,0-3.19-2.57H232a2.85,2.85,0,0,0-2.44,2,2.6,2.6,0,0,0-.14,1.2c.22,1.74.43,3.48.71,5.24a7,7,0,0,0,.18,1.28.61.61,0,0,0,.29.14,12.63,12.63,0,0,0-.19-1.27c2,1.23,4.1,2.31,6.18,3.46Zm-20.41-9.87a8,8,0,0,0-.28-1.34c-1.28-6.4-2.33-12.88-3.14-19.31a3,3,0,0,0-3.25-2.57,3,3,0,0,0-2.59,3.26c.61,4.93,1.38,9.87,2.29,14.77a5.9,5.9,0,0,0,.24,1.32l.23,1.34.36.2-.24-1.32c2.12,1.32,4.23,2.52,6.36,3.79Zm503.86-51.51a3,3,0,0,0-3.16,2.23,2.29,2.29,0,0,0,0,.37c-.2,2-.45,4-.69,5.93a11.55,11.55,0,0,1-.2,1.42,275.94,275.94,0,0,1-8.25,39.74c-1.58,5.55-3.34,11.08-5.27,16.53,2.5-1.4,5-2.88,7.5-4.4-.14.49-.32,1-.49,1.48l.27-.16c.16-.5.32-1,.5-1.48,1.1-3.44,2.17-6.87,3.14-10.35a278.14,278.14,0,0,0,7.89-36.9c.56-3.73,1-7.46,1.44-11.19a3,3,0,0,0-2.7-3.14ZM696.4,789.35a2.91,2.91,0,0,0-3.27,2.48v.07c-.12.89-.22,1.76-.34,2.65l-.47,3.33c-1.13,7.68-2.59,15.3-4.42,22.79-1.23,4.91-2.57,9.87-4.07,14.67,2.37-1.21,4.76-2.45,7.11-3.76-.14.44-.26.87-.38,1.33h0c.12-.46.26-.91.4-1.34.87-3.14,1.71-6.28,2.47-9.42,1.83-7.58,3.33-15.28,4.46-23,.17-1.23.33-2.45.53-3.68s.24-1.83.34-2.76a2.87,2.87,0,0,0-2.41-3.26h0Zm-22.59,21.21a3,3,0,0,0-3.24,2.37.61.61,0,0,0,0,.19c-.12,1.15-.25,2.29-.43,3.44l-.36,2.63a193.85,193.85,0,0,1-4.42,21.32c-.4,1.48-.83,2.94-1.26,4.4,2.31-1,4.58-2.09,6.85-3.16-.09.4-.21.8-.34,1.19h.18a3.72,3.72,0,0,1,.22-.79c.06-.26,0-.28.09-.4a194.73,194.73,0,0,0,4.94-25c.12-.93.24-2,.34-2.85a2.88,2.88,0,0,0-2.36-3.32ZM633.3,737.92c-19.27,12.42-39,25.25-62.22,27.94a58.74,58.74,0,0,1-7.26.47l-1.31.36-1.48.61h1.48a72.16,72.16,0,0,0,8.45-.47c23.16-2.79,43-15.54,62.18-27.88,5.62-3.62,11.09-7.17,16.5-10.33a5.32,5.32,0,0,1-.61-.55c-5.17,3.08-10.4,6.45-15.73,9.91ZM471.87,873.24a2.94,2.94,0,0,0-3,2.14,3.14,3.14,0,0,0-.12.61l-.43,7.48v1h0v-1c2,.1,3.95.14,5.8.16l.44-7.31A2.91,2.91,0,0,0,471.87,873.24Zm-22.55-25.17h0a2.91,2.91,0,0,0-2.8,2.19,2.3,2.3,0,0,0-.14.73l-.69,31.26v1h.12v-1c1.6.12,3.2.25,4.8.33h1l.7-31.59a2.9,2.9,0,0,0-2.89-2.92Zm-23.57,23.69a3,3,0,0,0-3.28-2.58,2.9,2.9,0,0,0-2.47,2,3.28,3.28,0,0,0-.11,1.21l.86,7.08.14,1.11h.24l-.12-1.11,5.77.73Zm.43-123.61c-3.75,1-7.5,2.21-11.23,3.43-13.68,5.26-25.19,9.46-36.35,11.24a108.3,108.3,0,0,1-25.33,3.43,66.3,66.3,0,0,1-8.45-.49,85.09,85.09,0,0,1-9.24-1.64l-2.9.28a83.16,83.16,0,0,0,12,2.35,72.06,72.06,0,0,0,8.43.47c17.54,0,35.38-5.92,52.78-11.71,6.85-2.29,13.82-4.62,20.73-6.53a5.58,5.58,0,0,1-.46-.73Zm-190.9,62.76a2.9,2.9,0,0,0-3.19-2.57H232a2.85,2.85,0,0,0-2.44,2,2.62,2.62,0,0,0-.14,1.21c.22,1.73.43,3.47.71,5.23a7,7,0,0,0,.18,1.28.61.61,0,0,0,.29.14,12,12,0,0,0-.19-1.26c2,1.1,4.12,2.19,6.2,3.23-.54-2.92-1-6-1.35-9.14Zm-19.35-1.85c-1.28-6.4-2.33-12.88-3.14-19.31a3,3,0,0,0-3.25-2.57,3,3,0,0,0-2.59,3.26c.61,4.93,1.38,9.87,2.29,14.77a5.9,5.9,0,0,0,.24,1.32l.23,1.34.36.2-.24-1.32c2.14,1.24,4.25,2.45,6.38,3.65-.1-.36-.2-.79-.28-1.24ZM856.87,546.84,827,540.42l-5-1.08a158,158,0,0,0-26.32-65.85,196.84,196.84,0,0,0-25.06-29.61q-6.71-6.61-14.21-12.84a273.12,273.12,0,0,0-30.7-22c-7.21-4.48-14.77-8.79-22.67-12.83a391.8,391.8,0,0,0-52.1-22q-21.1-7.28-44.19-12.83a626.57,626.57,0,0,0-145.81-16.31h-6.22a626.49,626.49,0,0,0-145.8,16.31q-23.09,5.55-44.19,12.83a390.53,390.53,0,0,0-52,22c-7.9,4-15.46,8.35-22.67,12.83a272.21,272.21,0,0,0-30.7,22q-7.48,6.22-14.22,12.84a197.36,197.36,0,0,0-25,29.61,157.77,157.77,0,0,0-26.42,65.85l-5,1.08-29.84,6.42A36.29,36.29,0,0,0,35.3,606.23a35.39,35.39,0,0,0,8.92,7.66A53.42,53.42,0,0,0,55,618.29a11.68,11.68,0,0,1,4.39,2.55c2.54,2.37,4.16,6.32,5.92,9.36,2,3.59,4,7.21,5.92,10.82C77.87,653.63,85,667.14,94.57,679.2a100.52,100.52,0,0,0,19.94,19.47,83.23,83.23,0,0,0,11.37,7,36.82,36.82,0,0,0,4.62,2L134.87,719c13.62,35.53,25.5,66.59,33,86.43,5,13,8.05,21.25,8.53,22.73a22,22,0,0,0,9.16,12c9,5.79,18.32,11.32,27.78,16.49a508.09,508.09,0,0,0,73.84,33.46,503.73,503.73,0,0,0,168.39,30.13H460a503.82,503.82,0,0,0,168.39-30.13,513.63,513.63,0,0,0,73.76-33.38q14.24-7.9,27.88-16.57a26,26,0,0,0,3.36-2.66,22.77,22.77,0,0,0,5.78-9.38c.47-1.48,3.57-9.7,8.55-22.79,1.54-3.94,3.24-8.5,5.09-13.4l4.92-12.83c2.59-6.82,5.43-14.18,8.41-22,1.58-4.15,3.22-8.45,4.94-12.83,2.68-7.07,5.51-14.44,8.39-22l1.28-3.31,3.65-9.52.71-2c1.54-.61,3.1-1.28,4.6-2a84.84,84.84,0,0,0,11.38-6.95,101.23,101.23,0,0,0,20.08-19.47c9.55-12.06,16.72-25.66,23.39-38.2,2-3.61,3.85-7.23,5.93-10.82,1.67-3,3.29-7,5.82-9.36a12.3,12.3,0,0,1,4.4-2.55,52.44,52.44,0,0,0,10.72-4.4,35.12,35.12,0,0,0,8.95-7.66,36.28,36.28,0,0,0-23.54-59.31ZM731.42,807.14c-.22.59-.43,1.13-.63,1.68h0c-.22.55-.43,1.09-.61,1.6-.54,1.38-1,2.68-1.44,3.85h0c-.46,1.16-.83,2.21-1.21,3.16h0c-.79,2.09-1.38,3.65-1.72,4.7a1,1,0,0,0-.09.21c-.2.5-.32.87-.4,1.09a8.57,8.57,0,0,1-3.39,4.5h0l-1.15.75L717,831.13c-4.44,2.74-9,5.35-13.49,7.9l.42-1a.33.33,0,0,0,0-.14l.57-1.38q2.55-6.42,4.78-13l.51-1.48c.16-.49.32-1,.5-1.48,1.1-3.44,2.17-6.87,3.14-10.35a277.8,277.8,0,0,0,7.89-36.9c.56-3.73,1.05-7.46,1.44-11.19a2.94,2.94,0,0,0-5.78-1,2.41,2.41,0,0,0,0,.38c-.2,2-.45,3.94-.69,5.92a11.55,11.55,0,0,1-.2,1.42,275.94,275.94,0,0,1-8.25,39.74c-1.58,5.55-3.34,11.08-5.27,16.53-.16.49-.34,1-.52,1.46l-.53,1.48q-2,5.38-4.15,10.64a17.18,17.18,0,0,1-3.17,3.48h0a41,41,0,0,1-3.1,2.8h0a32.39,32.39,0,0,1-5.51,4l.39-1.1a.67.67,0,0,0,0-.2c.16-.48.36-.95.52-1.42,1.38-4,2.7-7.9,3.94-12h0c.14-.49.3-1,.44-1.42s.26-.91.39-1.34c.87-3.14,1.72-6.28,2.47-9.42,1.84-7.58,3.34-15.28,4.46-23,.18-1.22.34-2.45.54-3.67s.23-1.84.33-2.77a2.86,2.86,0,0,0-2.42-3.24h-.1a2.89,2.89,0,0,0-3.27,2.48v.06c-.12.89-.22,1.76-.34,2.65l-.47,3.33c-1.13,7.68-2.59,15.31-4.42,22.79-1.23,4.91-2.57,9.87-4.07,14.67-.12.43-.24.85-.4,1.28a10.53,10.53,0,0,1-.47,1.44c-1.26,4.07-2.69,8.12-4.17,12.09-.19.47-.35.94-.53,1.4s-.31.81-.47,1.22v.12l-3.73,2H674c-2.59,1.29-5.15,2.59-7.78,3.8l-.28.09v-.09a9.85,9.85,0,0,0,.36-1,1.9,1.9,0,0,0,.14-.4,12.17,12.17,0,0,0,.47-1.32c1.38-3.95,2.63-7.9,3.71-11.85.14-.45.3-.92.4-1.38s.15-.53.21-.79,0-.27.1-.39a197,197,0,0,0,4.94-25c.12-.93.24-2,.33-2.84a2.87,2.87,0,0,0-2.51-3.21H674a3,3,0,0,0-3.24,2.37.67.67,0,0,0,0,.2c-.12,1.14-.26,2.29-.43,3.43l-.36,2.63a193.05,193.05,0,0,1-4.58,21.56c-.4,1.48-.83,2.94-1.26,4.4-.12.42-.22.81-.34,1.19s-.3.92-.43,1.38c-1.27,4.07-2.65,8-4.15,12l-.53,1.33h0c-.16.47-.36.92-.54,1.4h0c-4.68,2.09-9.39,4.08-14.11,6-2.33,1-4.64,2-7,2.82h-.2c-2.21.89-4.42,1.74-6.63,2.57S626,875.2,623.84,876A508.73,508.73,0,0,1,574.48,891,485.92,485.92,0,0,1,524,900.9a3.57,3.57,0,0,1-.73.1c-1.58.24-3.14.46-4.72.66q-22.68,2.9-45.58,3.71v-.5l1.14-19.31v-2l.44-7.3a2.91,2.91,0,0,0-2.72-3.08h-.05a2.92,2.92,0,0,0-3,2.13,3.14,3.14,0,0,0-.12.61l-.43,7.48v2.06l-1.11,19.07v1c-3.08,0-6.16.15-9.26.15-2.29,0-4.58,0-6.87-.11v-.18l.48-20.62v-2.07l.69-31.59a2.91,2.91,0,0,0-2.82-3h0a2.91,2.91,0,0,0-2.8,2.19,2.3,2.3,0,0,0-.14.73l-.69,31.26v2.07l-.45,20.2v1c-5.12-.16-10.23-.38-15.34-.72h0l-2.71-22.27-.12-1-.14-1.09-1-8.53a3,3,0,0,0-3.28-2.59,2.92,2.92,0,0,0-2.47,2,3.06,3.06,0,0,0-.12,1.2l.87,7.09.14,1.11.12,1,2.63,21.72.11,1-1.71-.14q-12.51-.88-24.94-2.51a490.85,490.85,0,0,1-55.89-10.54A514.36,514.36,0,0,1,292,876.17q-21.51-7.8-42.18-17.42l-3.06-1.54a188.44,188.44,0,0,1-6.12-18.81c-1.34-5.12-2.5-10.27-3.43-15.48h0a8.63,8.63,0,0,0-.24-1.25c-.06-.41-.14-.87-.2-1.3-.53-3.1-1-6.22-1.34-9.32a2.9,2.9,0,0,0-3.2-2.57h-.06a2.89,2.89,0,0,0-2.45,2,2.73,2.73,0,0,0-.13,1.2c.21,1.74.43,3.48.71,5.24a8.18,8.18,0,0,0,.17,1.28l.18,1.26c1.09,6.87,2.53,13.7,4.29,20.42,1.1,4.1,2.37,8.23,3.73,12.32.16.43.29.83.43,1.26-3.95-2-8.07-4.07-12.06-6.2a244.89,244.89,0,0,1-8.87-28.67c-.53-2.25-1.06-4.52-1.54-6.79l-.27-1.32a7.79,7.79,0,0,0-.28-1.34c-1.28-6.4-2.33-12.88-3.14-19.31a3,3,0,0,0-3.26-2.57,3,3,0,0,0-2.58,3.26c.61,4.93,1.38,9.87,2.29,14.77a6,6,0,0,0,.24,1.32l.23,1.34c.79,4.05,1.66,8,2.61,12,1.78,7.34,3.95,14.67,6.36,21.83.11.44.27.85.41,1.27-1.24-.7-2.59-1.37-3.85-2.1-2.21-1.26-4.34-2.56-6.52-4a.81.81,0,0,0-.11-.43,285.85,285.85,0,0,1-10.47-30.11,280.92,280.92,0,0,1-9.14-47.13,2.94,2.94,0,0,0-5.84.61,288.25,288.25,0,0,0,9.32,48.1c2.19,7.7,4.75,15.32,7.6,22.8l.49,1.29c-.59-.32-1.22-.65-1.8-1-1.24-.83-2.54-1.62-3.81-2.45a9.54,9.54,0,0,1-4.62-5.29c-1.24-3.73-15.16-40.18-41.79-109.69l-.16-.44-.4-1h.56a152.35,152.35,0,0,0,21,1.45h2.87c5.07,0,10.24-.12,15.49-.26,5.93-.12,11.85-.26,17.77-.2a140.55,140.55,0,0,1,35.27,4c13.68,3.63,27.2,12.34,41.46,21.6,15.79,10.15,32,20.57,50.19,25.53a83.16,83.16,0,0,0,12,2.35,71.94,71.94,0,0,0,8.43.47c17.53,0,35.38-5.92,52.78-11.71,6.85-2.29,13.82-4.62,20.73-6.53a121.1,121.1,0,0,1,29-5h4.44c16.25.42,33.23,5.93,49.7,11.51,16.9,5.59,34.21,11.38,51.33,11.69h1.48a72.16,72.16,0,0,0,8.45-.47c23.16-2.79,43-15.54,62.18-27.88,5.62-3.61,11.09-7.17,16.5-10.33a102.88,102.88,0,0,1,25.06-11.27c16.68-4.48,35.12-4.07,53-3.69a258.06,258.06,0,0,0,36.25-.79c1.14-.12,2.31-.3,3.43-.46h.26l-.55,1.45Q741.33,781.06,731.42,807.14Zm142-218.64-.12.41a1.13,1.13,0,0,1,0,.26c-.12.42-.28.81-.43,1.23a31.56,31.56,0,0,1-1.37,2.88h0a23.87,23.87,0,0,1-4,5.17c-.39.36-.77.73-1.18,1.09s-.47.35-.69.55a17.25,17.25,0,0,1-7.8,3.4,11.91,11.91,0,0,0-2,.27l-1.19.18-.93.2a9.11,9.11,0,0,0-2.92,1.16,9.5,9.5,0,0,0-2.17,2l-.49.63c-.79,1.12-1.47,2.35-2.14,3.51h0c-.77,1.27-1.62,2.47-2.48,3.66s-1.72,2.36-2.55,3.63c-1.64,2.53-3.3,5.09-4.9,7.68-.63,1-1.26,2.09-2,3.16s-1.54,2.66-2.29,4l-.3.55c-.71,1.34-1.42,2.68-2.11,4L828,640.64h0c-2.23,4.19-4.5,8.34-6.95,12.38-.73,1.29-1.52,2.55-2.29,3.79q-.63,1.07-1.29,2c-1.18,2-2.42,3.71-3.73,5.55l-.79,1.1c-1.54,2.13-3.16,4.23-4.87,6.24h0a2.24,2.24,0,0,1-.42.45c-.43.54-.87,1.07-1.34,1.58a89.3,89.3,0,0,1-6.58,6.76c-.79.73-1.61,1.48-2.44,2.17-1.29,1.08-2.59,2.11-4,3.12-.87.65-1.78,1.28-2.69,1.87l-2,1.29-.85.51c-.42.26-.83.51-1.24.73-1.35.77-2.69,1.48-4.07,2.13-.67.34-1.34.63-2,1-1.52.65-3.08,1.24-4.66,1.78-.71.23-1.4.43-2.09.63-.37.14-.77.24-1.14.34l-1.68.43a93.28,93.28,0,0,1-13.19,2c-1.28.12-2.57.2-3.83.26h0c-2.59.14-5.17.24-7.76.26-6,0-12.12,0-18.16-.18l-8.08-.16c-4.68,0-9.36-.12-14,0h0c-3.08,0-6.2.18-9.3.36-.89,0-1.75.12-2.66.19-1.72.14-3.42.28-5.14.48h0c-1.69.2-3.37.41-5.07.67-1.26.18-2.57.39-3.85.63-.85.14-1.68.32-2.55.49-2.11.42-4.22.93-6.33,1.49A88.35,88.35,0,0,0,659.2,707c-2,.83-4,1.74-5.77,2.65l-3.61,1.85c-.79.42-1.6.83-2.39,1.29L645.2,714l-.85.49L642,715.87c-5.66,3.31-11.23,6.89-16.76,10.44-3,2-5.92,3.83-8.92,5.69l-1.8,1.1c-4.11,2.59-8.27,5.08-12.5,7.33l-1.6.87-1,.51c-1.05.55-2.12,1.09-3.16,1.6s-2.33,1.11-3.5,1.64h0c-1.18.53-2.35,1-3.53,1.52h0c-.89.35-1.76.71-2.67,1s-1.77.67-2.66,1-2.41.79-3.62,1.13l-2.72.73-2.73.63c-1,.2-2.09.41-3.15.57l-2.37.34c-16.94,2-35.37-4.09-54.81-10.58-2.27-.77-4.56-1.52-6.85-2.25s-4.58-1.51-6.91-2.24h0c-2.29-.71-4.6-1.38-6.93-2h0c-4.62-1.32-9.3-2.47-14-3.48h0c-2.33-.47-4.7-.88-7.05-1.22-.79-.12-1.58-.24-2.37-.32h-.32l-2.66-.27c-.89,0-1.8-.16-2.67-.22a1.94,1.94,0,0,0-.59,0l-2-.12h-8.67a12.8,12.8,0,0,0-2.15.12.76.76,0,0,0-.3,0,9.19,9.19,0,0,0-2.33.2c-2.19.18-4.36.43-6.53.81-1.84.27-3.66.57-5.47,1a5.68,5.68,0,0,0-1.4.27l-3.1.67q-3.12.69-6.22,1.52l-3,.85c-7.31,2-14.56,4.45-21.72,6.81-19.47,6.5-37.87,12.62-54.81,10.59-1.23-.16-2.45-.34-3.67-.56l-1.86-.35c-.61-.12-1.2-.26-1.82-.42-1.24-.27-2.44-.59-3.65-.94s-2.41-.71-3.59-1.13-2-.69-2.94-1.07l-2.41-.92-1.78-.75c-1.16-.5-2.35-1-3.51-1.58-.87-.42-1.74-.81-2.63-1.27L316.43,742c-2-1-3.75-2-5.61-3-2.29-1.29-4.56-2.63-6.81-4-4.54-2.77-9-5.65-13.46-8.51-7.35-4.72-14.83-9.52-22.45-13.66-2.39-1.29-4.78-2.53-7.19-3.68-1.18-.58-2.39-1.13-3.61-1.65l-1.72-.73-2-.79c-.8-.3-1.59-.62-2.42-.89a56.43,56.43,0,0,0-6.42-2c-1.7-.45-3.4-.87-5.09-1.22l-2.57-.53c-.85-.16-1.7-.32-2.55-.44-4.24-.73-8.51-1.22-12.77-1.56-.91,0-1.8-.16-2.71-.2-7.78-.49-15.57-.49-23.31-.35l-8.1.16c-6.06.11-12.14.25-18.2.17-2.59,0-5.18-.11-7.74-.25h0c-1.27,0-2.53-.14-3.83-.26a93.06,93.06,0,0,1-13.19-2c-1.13-.28-2.17-.56-3.24-.89-.57-.16-1.11-.34-1.6-.52-1.05-.33-2.11-.71-3.14-1.14-.51-.18-1-.4-1.54-.63l-1.52-.69c-.89-.4-1.74-.83-2.6-1.29-1.6-.85-3.14-1.73-4.66-2.7s-2.67-1.74-4-2.73-2.73-2.09-4-3.19h0a78.44,78.44,0,0,1-7.19-6.93c-.71-.72-1.36-1.45-2-2.18l-.77-.9c-.32-.34-.59-.68-.89-1h0l-1.46-1.78c-1.17-1.44-2.27-2.92-3.36-4.4A168.27,168.27,0,0,1,93,650.22h0c-1.84-3.14-3.57-6.32-5.27-9.52-.46-.85-.91-1.7-1.34-2.54-.73-1.35-1.47-2.69-2.16-3.95-2.82-5.29-6.1-10.39-9.35-15.4-1.62-2.51-3.5-4.78-5-7.31q-1.08-1.93-2.35-3.77c-.2-.28-.39-.53-.63-.81a1.44,1.44,0,0,0-.32-.31A7.61,7.61,0,0,0,65,605.36a8.5,8.5,0,0,0-2.48-1.05,24.17,24.17,0,0,0-2.67-.51L58,603.54l-.65-.09h-.12c-.51-.11-1-.24-1.52-.4a9,9,0,0,1-1.32-.47h-.18l-.45-.2c-.55-.28-1.11-.55-1.64-.87s-.81-.51-1.22-.79a10.67,10.67,0,0,1-1.07-.81c-.34-.27-.51-.45-.79-.65l-.14-.14-.81-.81c-.31-.29-.57-.61-.87-.93a11.23,11.23,0,0,1-1-1.26,5.76,5.76,0,0,1-.81-1.16.69.69,0,0,1-.18-.24,8.86,8.86,0,0,1-.79-1.32,11.34,11.34,0,0,1-.75-1.42h0a20.25,20.25,0,0,1-1.8-5.93,19.19,19.19,0,0,1,.14-6.28,21.23,21.23,0,0,1,.65-2.84,25.39,25.39,0,0,1,.89-2.39.68.68,0,0,1,.16-.33,11.32,11.32,0,0,1,.73-1.43,16.85,16.85,0,0,1,1-1.67,20.74,20.74,0,0,1,4.3-4.76,9.51,9.51,0,0,1,1-.77,10.51,10.51,0,0,1,.89-.59,6.85,6.85,0,0,1,.94-.56c.21-.23.42-.46.65-.67a10.82,10.82,0,0,1,1.43-.65c.47-.22,1-.39,1.46-.57a29.67,29.67,0,0,1,3-.89l1.06-.28,2-.45,4.2-.81q10-2,20-4.13c3.42-.71,6.86-1.48,10.25-2.27l4.58-1h.53a9.56,9.56,0,0,0,1-.3,7,7,0,0,0,1-.49.51.51,0,0,0,.2-.12,5.3,5.3,0,0,0,.75-.52,9.47,9.47,0,0,0,.81-.75,5.63,5.63,0,0,0,.71-.9,7.48,7.48,0,0,0,1.12-3.2,18.29,18.29,0,0,1,.34-2.53l.35-2.49c.12-.85.26-1.68.42-2.51s.29-1.65.43-2.48c.32-1.66.65-3.3,1-4.94.16-.83.35-1.64.57-2.45.4-1.64.83-3.25,1.29-4.87s.94-3.22,1.48-4.82c.27-.79.53-1.6.83-2.39s.53-1.58.82-2.39c.56-1.58,1.19-3.16,1.84-4.7.3-.79.63-1.56,1-2.35s.65-1.56,1-2.33.69-1.56,1.06-2.33c1.09-2.31,2.25-4.6,3.46-6.85.37-.77.79-1.52,1.22-2.29l1.28-2.25c.42-.75.85-1.5,1.33-2.23s.9-1.48,1.38-2.21.87-1.44,1.34-2.15,1-1.52,1.5-2.27,1-1.47,1.5-2.2l1.62-2.29c.46-.63.93-1.26,1.4-1.87,1.09-1.48,2.23-3,3.38-4.42.55-.72,1.1-1.41,1.7-2.12s1.16-1.38,1.73-2.09c1.17-1.38,2.39-2.78,3.64-4.15a197.88,197.88,0,0,1,16.13-16c.73-.69,1.46-1.32,2.19-2l2.27-2c1.48-1.28,3-2.52,4.56-3.77l2.41-1.85c.61-.52,1.22-1,1.86-1.48,1.79-1.35,3.59-2.69,5.43-3.95q5-3.62,10.38-7.11c1.56-1,3.16-2,4.76-3q6.27-3.94,13-7.64l4.84-2.67,3.95-2,2.86-1.46a378.76,378.76,0,0,1,51.17-21.21c2.31-.77,4.66-1.56,7-2.27,4.7-1.52,9.48-3,14.34-4.28,2.41-.71,4.85-1.39,7.3-2l7.41-2h.23c2.41-.59,4.86-1.19,7.29-1.74,2.11-.49,4.22-1,6.36-1.44l3-.63c2-.44,3.95-.83,5.92-1.23,2.59-.53,5.17-1,7.76-1.52,2.29-.43,4.58-.85,6.87-1.22.87-.18,1.72-.32,2.61-.45h0l5.72-.93c5.45-.89,11-1.68,16.57-2.39,2.7-.36,5.41-.71,8.13-1,14-1.64,28.24-2.82,42.73-3.51,2-.1,3.75-.18,5.64-.24h3c2.4-.1,4.79-.16,7.22-.22s5.47-.12,8.21-.16h24.21c3.08,0,5.49,0,8.21.16s4.82.12,7.23.22h3c2,0,3.77.14,5.65.24,14.49.69,28.76,1.87,42.72,3.51,2.69.3,5.37.65,8,1q11,1.39,21.72,3.26c1.22.17,2.43.37,3.65.61Q593.15,373.19,615,379c2.23.57,4.43,1.2,6.62,1.84s4.85,1.36,7.24,2.09,4.94,1.48,7.41,2.27l5.17,1.68c2.43.81,4.84,1.62,7.23,2.47l3,1.08c1.52.53,3,1.09,4.5,1.66l.91.32c1.5.55,3,1.12,4.42,1.71,1,.34,2,.73,2.88,1.11,1.86.73,3.71,1.48,5.53,2.25,4.34,1.82,8.59,3.67,12.77,5.59l.68.31c2,.85,3.73,1.72,5.56,2.63,4.07,2,8.1,3.95,12,6.14,2,1.07,3.95,2.13,5.92,3.22s3.85,2.17,5.75,3.31l4.18,2.51,4.09,2.57h0c4.5,2.86,8.84,5.82,13,8.82,5.92,4.21,11.37,8.57,16.58,13.05,1.47,1.31,2.93,2.57,4.35,3.95h0l4.18,3.95c.87.83,1.74,1.7,2.61,2.57s1.72,1.7,2.53,2.57l2.47,2.6,2.17,2.37c.87.95,1.71,2,2.56,2.92s1.52,1.76,2.25,2.67l2.2,2.7h0l2,2.67c2,2.68,4,5.39,5.82,8.11a.53.53,0,0,1,.12.22c1.27,1.86,2.47,3.77,3.64,5.65s2.27,3.85,3.33,5.76c.67,1.23,1.33,2.43,2,3.64s1.22,2.44,1.81,3.67c1.21,2.47,2.31,5,3.36,7.46.61,1.5,1.2,3,1.78,4.5s1.1,3,1.62,4.58c1,3.08,2,6.16,2.76,9.28.24.85.45,1.7.65,2.57.53,2.27,1,4.58,1.46,6.89.3,1.58.56,3.18.81,4.8s.44,3.2.63,4.82a5.42,5.42,0,0,0,0,.57l.14.57.2.53a6.79,6.79,0,0,0,1.44,2.41l.57.55a5.23,5.23,0,0,0,.64.5,3.25,3.25,0,0,0,.67.41,4.3,4.3,0,0,0,.71.36l.81.29.47.14h.32l8.45,2,6.37,1.38c3.34.75,6.7,1.44,10,2.11l3.66.75,6.39,1.27c2,.37,3.83.71,5.69,1.14L856,562a10.54,10.54,0,0,1,1.25.36l1.24.38,1.25.45a21.82,21.82,0,0,1,3.81,2l.91.62a22,22,0,0,1,8.88,20.45,4.09,4.09,0,0,1-.1.61A12.13,12.13,0,0,1,873.42,588.5ZM216.21,810.56a7.79,7.79,0,0,0-.28-1.34c-1.28-6.4-2.33-12.88-3.14-19.31a3,3,0,0,0-3.25-2.57A3,3,0,0,0,207,790.6c.61,4.93,1.38,9.87,2.29,14.77a6,6,0,0,0,.24,1.32l.23,1.34.36.2-.24-1.32C212,808.09,214.08,809.29,216.21,810.56Zm20.42,9.87c-.54-3.1-1-6.22-1.35-9.32a2.89,2.89,0,0,0-3.19-2.57H232a2.86,2.86,0,0,0-2.44,2,2.58,2.58,0,0,0-.14,1.2c.22,1.74.43,3.48.71,5.23a7.15,7.15,0,0,0,.18,1.29.71.71,0,0,0,.29.14,12.63,12.63,0,0,0-.19-1.27c2,1.09,4.12,2.17,6.2,3.32Zm189.53-72.08c-3.75,1-7.5,2.21-11.23,3.43-13.68,5.25-25.19,9.46-36.35,11.23a107.78,107.78,0,0,1-25.33,3.44,68.19,68.19,0,0,1-8.45-.49,87.59,87.59,0,0,1-9.24-1.64l-2.9.27a81.83,81.83,0,0,0,12,2.35,70,70,0,0,0,8.43.48c17.54,0,35.38-5.93,52.78-11.71,6.85-2.29,13.82-4.62,20.73-6.54a5.18,5.18,0,0,1-.44-.92Zm.6,132.14-1-8.53a3,3,0,0,0-3.28-2.59,2.93,2.93,0,0,0-2.47,2,3.25,3.25,0,0,0-.11,1.2l.87,7.09.13,1.11h.24l-.12-1.11Zm22.56-32.42h0a2.91,2.91,0,0,0-2.8,2.19,2.3,2.3,0,0,0-.14.73l-.69,31.26v1h.12v-1c1.6.12,3.2.25,4.8.33h1l.7-31.59a2.9,2.9,0,0,0-2.89-2.92Zm22.55,25.17a2.94,2.94,0,0,0-3,2.14,3.14,3.14,0,0,0-.12.61l-.43,7.48v1h0v-1c2,.1,3.95.14,5.8.16l.44-7.31A2.91,2.91,0,0,0,471.87,873.24ZM649,728.09c-5.17,3.06-10.4,6.43-15.79,9.87-19.17,12.38-38.92,25.21-62.12,27.9a58.74,58.74,0,0,1-7.26.47l-1.31.36-1.48.61h1.48a72.16,72.16,0,0,0,8.45-.47c23.16-2.79,43-15.54,62.18-27.88,5.62-3.62,11.09-7.17,16.5-10.33a6.09,6.09,0,0,1-.61-.53Zm24.82,82.47a3,3,0,0,0-3.24,2.37.61.61,0,0,0,0,.19c-.12,1.15-.25,2.29-.43,3.44l-.36,2.63a193.85,193.85,0,0,1-4.42,21.32c-.4,1.48-.83,2.94-1.26,4.4,2.31-1,4.58-2.09,6.85-3.16-.09.4-.21.8-.34,1.19h.18a3.72,3.72,0,0,1,.22-.79c.06-.26,0-.28.09-.4a194.73,194.73,0,0,0,4.94-25c.12-.93.24-2,.34-2.85a2.88,2.88,0,0,0-2.36-3.32Zm22.53-21.19a2.91,2.91,0,0,0-3.27,2.48v.07c-.12.89-.22,1.76-.34,2.65l-.47,3.33c-1.13,7.68-2.59,15.3-4.42,22.79-1.23,4.91-2.57,9.87-4.07,14.67,2.37-1.21,4.76-2.45,7.11-3.76-.14.44-.26.87-.38,1.33h0c.12-.46.26-.91.4-1.35.87-3.13,1.72-6.27,2.47-9.41,1.83-7.58,3.33-15.28,4.46-23,.18-1.23.33-2.45.53-3.68s.24-1.83.34-2.76a2.87,2.87,0,0,0-2.35-3.28ZM720,758.93a3,3,0,0,0-3.16,2.23,2.29,2.29,0,0,0,0,.37c-.2,2-.45,4-.69,5.93a11.82,11.82,0,0,1-.2,1.42,275.94,275.94,0,0,1-8.25,39.74c-1.58,5.55-3.34,11.08-5.27,16.53,2.51-1.4,5-2.88,7.5-4.4-.14.49-.32,1-.49,1.48l.27-.16c.16-.5.32-1,.5-1.48,1.1-3.44,2.17-6.87,3.14-10.35a278.14,278.14,0,0,0,7.89-36.9c.56-3.73,1.05-7.46,1.44-11.19a3,3,0,0,0-2.64-3.16Z"/></g><g id="Sellado"><path class="cls-2" d="M457.73,660.09a6.55,6.55,0,0,0-4.75,2,6.45,6.45,0,0,0-2,4.79l.4,45.31a6.81,6.81,0,0,0,6.83,6.7,6.61,6.61,0,0,0,4.74-2,6.46,6.46,0,0,0,2-4.83l-.39-45.32A6.79,6.79,0,0,0,457.73,660.09Z"/><path class="cls-2" d="M116.15,588.09l.26-1.39a85.87,85.87,0,0,1,4.38-16.05A89.25,89.25,0,0,1,139.41,541h0a4.95,4.95,0,0,0-7.21-6.78,99,99,0,0,0-20.65,32.86,95.74,95.74,0,0,0-4.44,15.6l-11.85,6.85a5,5,0,0,0-2.33,3.06,5,5,0,0,0,3.67,6,5.38,5.38,0,0,0,1.13.14,5.24,5.24,0,0,0,2.45-.65l15-8.71A2,2,0,0,0,116.15,588.09Z"/><path class="cls-2" d="M150.72,571.66a5.25,5.25,0,0,0-3.79-.89,5,5,0,0,0-3.34,2,90.16,90.16,0,0,0-8.88,15.19,87.8,87.8,0,0,0-5.92,18.38l-11.54,9.61a5.14,5.14,0,0,0-.65,7.23,5.26,5.26,0,0,0,4,1.8,5.11,5.11,0,0,0,3.26-1.17l13.82-11.45.18-.16a2.09,2.09,0,0,0,.39-1l.16-1a76.59,76.59,0,0,1,13.45-31.27A5.18,5.18,0,0,0,150.72,571.66Z"/><path class="cls-2" d="M181.46,597.33a5.28,5.28,0,0,0-9.63-1.76,90.15,90.15,0,0,0-8.57,16.84,86.92,86.92,0,0,0-4.56,16.05l-11.1,9.1a5.31,5.31,0,0,0,2.65,9.42,4.63,4.63,0,0,0,.65,0,5.49,5.49,0,0,0,3.35-1.18l13.39-11a2,2,0,0,0,.89-1.38l.2-1.19a81.84,81.84,0,0,1,12-31A5.21,5.21,0,0,0,181.46,597.33Z"/><path class="cls-2" d="M215.08,604.59a5.51,5.51,0,0,0-7.62,1.42,102.37,102.37,0,0,0-16.11,38.7l-10.09,13a5.46,5.46,0,0,0,4.35,8.81,5.46,5.46,0,0,0,4.36-2.14L201.3,649.8a2.19,2.19,0,0,0,.36-.79l.24-1a90.26,90.26,0,0,1,14.59-35.82,5.33,5.33,0,0,0,.89-4.08A5.44,5.44,0,0,0,215.08,604.59Z"/><path class="cls-2" d="M248.39,629.35a5.73,5.73,0,0,0-7.78,1.62,81.61,81.61,0,0,0-6.41,11.53v.12a64.47,64.47,0,0,0-5.33,18.18l-7.21,16.65a6.18,6.18,0,0,0,0,4.28,5.68,5.68,0,0,0,3.08,3.14,5.6,5.6,0,0,0,7.36-3l0,0,7.62-17.77a1.83,1.83,0,0,0,.12-.46L240,663a57.7,57.7,0,0,1,2.41-10.38c.77-2.23,1.54-4,2-5.13l.16-.32a68.29,68.29,0,0,1,5.47-9.87,5.44,5.44,0,0,0,.87-4.25A5.6,5.6,0,0,0,248.39,629.35Z"/><path class="cls-2" d="M280.67,645.32a5.76,5.76,0,0,0-7.52,3.46c-2,5.57-3.55,10.21-4.86,14.61-1.24,4-2.44,8-3.69,13.46-.85,3.68-1.6,7.58-2.27,11.63a5.93,5.93,0,0,0,5,6.68h.79a5.93,5.93,0,0,0,5.78-5c.63-3.83,1.34-7.46,2.09-10.82,1.27-5.43,2.49-9.46,3.48-12.71,1.44-4.74,3-9.44,4.68-14a5.92,5.92,0,0,0-.2-4.47A5.54,5.54,0,0,0,280.67,645.32Z"/><path class="cls-2" d="M318.44,652.13a6.08,6.08,0,0,0-4.52.48,5.9,5.9,0,0,0-2.92,3.57l-3.59,12a.48.48,0,0,0,0,.17l-2.23,11.26-4.11,15.2a6,6,0,0,0,4.2,7.4,5.42,5.42,0,0,0,1.6.22A6.07,6.07,0,0,0,312.8,698L317,682.4l2.21-11.07,3.52-11.71a6.09,6.09,0,0,0-4.09-7.51Z"/><path class="cls-2" d="M351.83,660.29a6.24,6.24,0,0,0-7.74,4.2A91.19,91.19,0,0,0,341.54,676a81.81,81.81,0,0,0-.94,12.5l-3,15.16a6.21,6.21,0,0,0,.91,4.62,5.91,5.91,0,0,0,3.83,2.63,4.87,4.87,0,0,0,1.36.16,6.27,6.27,0,0,0,6.11-5L353,690.2v-1a75.34,75.34,0,0,1,.77-11.33A70.83,70.83,0,0,1,356,668h0A6.26,6.26,0,0,0,351.83,660.29Z"/><path class="cls-2" d="M391.69,657.6a6.44,6.44,0,0,0-4.84,1,6.59,6.59,0,0,0-2.6,4.07c-.93,5-1.72,10.15-2.31,15.28-.32,2.94-.48,5.23-.63,7.52-.18,2.79-.38,5.19-.83,8.83l-2,15.3a6.62,6.62,0,0,0,1.33,4.76,6.52,6.52,0,0,0,4.18,2.37,6,6,0,0,0,.85,0,6.36,6.36,0,0,0,6.34-5.61l2-15.26c.52-4.11.71-7,.87-9.64,0-.65.12-1.28.16-2,.12-1.52.24-3.08.47-5,.56-4.8,1.27-9.61,2.16-14.31h0a6.42,6.42,0,0,0-5.14-7.45Z"/><path class="cls-2" d="M422.67,671.56a6.57,6.57,0,0,0-6.57,6.32l-1.37,34a6.64,6.64,0,0,0,1.76,4.76,6.54,6.54,0,0,0,4.66,2.07h.18a6.47,6.47,0,0,0,6.53-6.28l1.4-34A6.75,6.75,0,0,0,422.67,671.56Z"/><path class="cls-2" d="M822.16,591.58a4.91,4.91,0,0,0-2.33-3L808,581.71a98.41,98.41,0,0,0-25.14-48.43,4.92,4.92,0,0,0-7-.18,5,5,0,0,0-1.54,3.42,4.88,4.88,0,0,0,1.33,3.53,89.41,89.41,0,0,1,18.62,29.61,88,88,0,0,1,4.4,16.1l.24,1.32a2,2,0,0,0,1,1.38l15,8.73a5,5,0,0,0,6.73-1.84h0A4.88,4.88,0,0,0,822.16,591.58Z"/><path class="cls-2" d="M786.37,605.32a85.17,85.17,0,0,0-14.79-33.54,5,5,0,0,0-3.3-2,5.08,5.08,0,0,0-3.83.91,5.16,5.16,0,0,0-1.12,7.13,76.65,76.65,0,0,1,13.42,31.25l.2,1.09a1.94,1.94,0,0,0,.67,1.2l13.82,11.53a5.18,5.18,0,0,0,3.28,1.17A5.12,5.12,0,0,0,798,615Z"/><path class="cls-2" d="M767.57,636.54l-11.13-9.11a94.08,94.08,0,0,0-13.13-32.91,5.34,5.34,0,0,0-7.37-1.58,5.4,5.4,0,0,0-1.56,7.35,82.51,82.51,0,0,1,11.93,30.92l.22,1.2a2,2,0,0,0,.69,1.17l13.6,11.15a5.36,5.36,0,0,0,3.34,1.2,5.29,5.29,0,0,0,5.29-5.29c0-.21,0-.42,0-.63A5.15,5.15,0,0,0,767.57,636.54Z"/><path class="cls-2" d="M723.76,643.76A103.88,103.88,0,0,0,719.44,628a102.15,102.15,0,0,0-11.85-22.87,5.49,5.49,0,0,0-3.45-2.31,5.69,5.69,0,0,0-4.19.87,5.51,5.51,0,0,0-1.38,7.6,91.47,91.47,0,0,1,10.5,20.44A95.4,95.4,0,0,1,713.18,647l.1.71a2,2,0,0,0,.39.91l11.47,14.93a5.54,5.54,0,0,0,4.33,2.13,5.3,5.3,0,0,0,3.35-1.17,5.52,5.52,0,0,0,1-7.7Z"/><path class="cls-2" d="M686.33,659.72a67.07,67.07,0,0,0-2.85-11.85,63.32,63.32,0,0,0-2.58-6.48,83.26,83.26,0,0,0-6.42-11.53,5.72,5.72,0,0,0-7.9-1.54,5.64,5.64,0,0,0-1.56,7.84,70.62,70.62,0,0,1,5.51,9.87,46.77,46.77,0,0,1,2.15,5.43,52.35,52.35,0,0,1,2.43,10.47v.39c0,.15.09.29.14.44l7.64,17.9a5.68,5.68,0,0,0,5.21,3.44,5.57,5.57,0,0,0,2.24-.45,5.8,5.8,0,0,0,3-3.08h0a5.84,5.84,0,0,0,0-4.35Z"/><path class="cls-2" d="M650.51,675.83c-1.34-5.79-2.62-10.07-3.67-13.49-1.5-4.93-3.14-9.87-4.88-14.57a5.9,5.9,0,0,0-3-3.32,5.75,5.75,0,0,0-4.42-.19,5.92,5.92,0,0,0-3.53,7.48c1.65,4.62,3.23,9.34,4.66,14l.09.29c1,3.42,2.2,7.29,3.36,12.38.89,3.73,1.58,7.37,2.11,10.84a5.94,5.94,0,0,0,5.79,4.92h1a5.94,5.94,0,0,0,3.75-2.35,5.75,5.75,0,0,0,1-4.36C652.07,683.15,651.32,679.36,650.51,675.83Z"/><path class="cls-2" d="M610.08,678.75l-2.25-11.22v-.17l-3.68-12.19a6,6,0,1,0-11.47,3.46l3.46,11.57,2.09,11a.29.29,0,0,1,0,.13L602.44,697a5.9,5.9,0,0,0,5.8,4.44,5.41,5.41,0,0,0,1.6-.21,5.73,5.73,0,0,0,3.61-2.79,6,6,0,0,0,.62-4.56Z"/><path class="cls-2" d="M574.54,687.79a91.06,91.06,0,0,0-1-12.77A79.94,79.94,0,0,0,571,663.47a6.22,6.22,0,0,0-11.41-1.21,6.45,6.45,0,0,0-.51,4.74,70.8,70.8,0,0,1,2.23,9.87,78.56,78.56,0,0,1,.81,11.26v.41a1.57,1.57,0,0,0,0,.53l3.22,16.06a6.26,6.26,0,0,0,6.1,5,4.63,4.63,0,0,0,1.28-.16,6.07,6.07,0,0,0,3.95-2.62,6.29,6.29,0,0,0,.93-4.66Z"/><path class="cls-2" d="M534.64,693.28c-.4-3-.56-5.23-.71-7.36l-.12-1.56c-.16-2.22-.3-4.49-.63-7.45-.62-5.11-1.39-10.22-2.31-15.22a6.47,6.47,0,0,0-2.69-4.13,6.22,6.22,0,0,0-4.76-1,6.3,6.3,0,0,0-4.1,2.66,6.39,6.39,0,0,0-1,4.8c.91,5,1.64,9.87,2.15,14.33.32,2.63.45,4.62.61,7V686c.18,2.41.38,5.14.85,8.85l2,15.3a6.43,6.43,0,0,0,6.35,5.59,6,6,0,0,0,.85,0,6.27,6.27,0,0,0,4.17-2.39,6.46,6.46,0,0,0,1.32-4.76Z"/><path class="cls-2" d="M492.21,670.57a6.45,6.45,0,0,0-4.62,2.12,6.62,6.62,0,0,0-1.72,4.72l1.38,34a6.57,6.57,0,0,0,6.58,6.3h.37a6.68,6.68,0,0,0,4.5-2.13,6.83,6.83,0,0,0,1.72-4.68h0L499,676.85a6.48,6.48,0,0,0-6.66-6.28Z"/><path class="cls-2" d="M581.84,506.6l-9.24.95a200.5,200.5,0,0,1-20.06,1,156.32,156.32,0,0,1-61.93-12.09c-15.7-6.71-25.55-14.29-37-23a324.29,324.29,0,0,0-30.51-21.4,314.73,314.73,0,0,0-79.27-34.21l-11.23-3.2,11.61-1.13c41.46-4.08,76.78,1.64,105,17A171.77,171.77,0,0,1,473.49,447a334,334,0,0,0,27.64,19.84,385.82,385.82,0,0,0,72.07,36.41Z"/><path class="cls-2" d="M645.62,479.73l-5.51-.51a192.49,192.49,0,0,1-56.25-14.06,202.84,202.84,0,0,1-70-48.82l-3.81-4,5.56.33A178,178,0,0,1,591,434.44a186.48,186.48,0,0,1,51,41.15Z"/><path class="cls-2" d="M421.23,523.54l-5.69-.51a208.12,208.12,0,0,1-58.18-14.16,214,214,0,0,1-72.8-49l-3.95-4.09,5.75.38a189.11,189.11,0,0,1,77.83,21.89,196.82,196.82,0,0,1,53.31,41.27Z"/></g></g></svg>