<svg xmlns="http://www.w3.org/2000/svg" viewBox="0 0 1142 446"><defs><style>.cls-1{fill:#020202;}</style></defs><g id="Capa_3" data-name="Capa 3"><path class="cls-1" d="M1005.68,105.69c-27.92,13.19-39.59,37.44-33.4,66.08C1001.18,157.86,1011.81,131.87,1005.68,105.69Z"/><path class="cls-1" d="M213.29,210.6c76.17-4.27,105.84-93.63,42.78-127.12a65,65,0,0,0-33.31-6.94c-31.2,1.61-62.54,3.9-93.52,8.44-16.1,2.36-32,4.12-47.42,9.45-8.57,2.95-16.85,7.07-23.33,13.1-7.9,7.36-11.32,16.8-12.27,26.9-1,10.88,1.37,22.35,8.27,31.13a33.38,33.38,0,0,0,13,10c26.94,13.53,60.73-11,46.63-38.43-4.58-5.76-11.55-8.08-18.67-9.93-6.75-1.75-15.09-3.43-16.46-11.1-1.61-9,8.32-14.49,16.28-16.31,7.52-1.74,15.82-1.23,22.69,2a25,25,0,0,1,13.88,18.66c4,21.62,17.56,106.4,18.88,144.08a34.12,34.12,0,0,1-3.16,15.85c-2.06,4.35-4.6,7.34-9.8,13a4.77,4.77,0,0,0-1.38,5.46,4.34,4.34,0,0,0,.78,1.17,4.68,4.68,0,0,0,4.07,1.31q23.61-3.31,47.29-6.19c11-1.34,30.12-3.54,32.35-3.8,1.38-.17,11.49-.76,12.33-2.11a2.63,2.63,0,0,0,.29-1.44c-.1-5.69-5.56-8.94-9.13-12.58-5.08-5.21-7-8.07-9.7-14.79-5-12.27-7.75-26.52-7.35-43.53C207.28,216.88,207.46,211,213.29,210.6Zm-8-20.69a1.63,1.63,0,0,1-2.14-1.3c-1.83-14-4.77-48.63-4.58-50.07-.42-13.84-1.39-27.72,2.58-41.25a4,4,0,0,1,5.4-2.51c11.12,4.58,20.57,11.28,26.87,21.25a46.57,46.57,0,0,1,7,26.74c-.5,12.47-5.35,27.28-15.39,35.87C219.53,184.15,211.57,187.9,205.3,189.91Z"/><path class="cls-1" d="M341.36,270.52c4.77-.27,16-1,26.62-8.52a42.68,42.68,0,0,0,11.36-11.86s.22.47.58,1.24c2.75,5.93,8.12,17.1,18.18,27.39a81.75,81.75,0,0,0,18.22,13.94l0,0c16.23,6.78,28.57,5.56,34.65,4.4,7.35-1.41,19.6-5.37,19.74-10.42.06-2.66-3.22-4-9-8.37a72.54,72.54,0,0,1-16.6-17.53c-3-4.71-5.82-10.8-8.95-26.86-4.09-20.9-2.24-24.65-5.6-44-2.66-15.22-4-22.83-9.33-30.54-11.66-16.86-32.71-24.74-34-25.19-1.73-.69-39.15-14-66.4,4.24-9.7,6.49-22.37,20-18.13,29.85,2.56,6,10.23,8.28,13.47,9.27,14.11,4.28,32.05-1.44,33.92-8.8,1.62-6.39-9.68-11.29-7.08-18.17,1.17-3.08,4.67-5.31,7.72-5.74,6.83-.95,13.33,6.84,14.75,8.57l.37.45c2.14,2.67,4.33,7.19,7.59,21a97.23,97.23,0,0,1,2.59,22.16.3.3,0,0,1-.51.19c-9.83-9.65-24.68-15.27-40.83-14-26,1.95-48.25,25-46.45,47.78,1.49,19.17,18.95,30.43,21.11,31.81C323.05,271.37,337.16,270.75,341.36,270.52Zm14.56-70.17c11.32-.78,21.22,10.09,22.1,24.2s-7.42,26.14-18.54,26.91-21-10-22.09-24.08S344.6,201.14,355.92,200.35Z"/><path class="cls-1" d="M682.07,270.09c1-1.67-.7-4.45-1.93-6.13-1.12-1.28-2.55-3-4.08-5.16A78.17,78.17,0,0,1,670,248.53c-5-10.31-5.41-29.2-5.71-43.25-.22-10.22.2-18,.52-24.28.08-1.67.46-6.59,1.38-14.14a380.48,380.48,0,0,1,6.59-37.7c1.49-3,1.63-5.86.17-7.08-.45-.37-1.63-1.1-6.89.25a41.54,41.54,0,0,0-9.95,3.85q-8.31,5.41-16.58,10.86A76.26,76.26,0,0,1,624.15,145,79.58,79.58,0,0,1,610,148.91a96.4,96.4,0,0,1-12,1c-7.8.4-11,.15-11.66,1.62-.31.69-.17,2.09,3.26,5.05a32.36,32.36,0,0,1,8.68,6.08c5.7,5.67,8.86,12.26,9.35,21.68a413.17,413.17,0,0,1-.22,47.56c-.67,10.65-1.74,20.25-8.25,23.86-2.58,1.43-6.73,2.32-9.77,6.46-.38.52-3.41,4.64-1.8,6.69,1.22,1.55,3.65,1.42,3.91,1.41,44.92-.62,76.32.11,84,1C676.66,271.48,680.89,272,682.07,270.09Z"/><path class="cls-1" d="M810.36,150.5a6.14,6.14,0,0,0-6-6.27q-10.3-.63-20.62-1.2c4.2-17.87,6.94-32,8.69-42.08.75-4.3,1.65-9.84-1.25-11.62-4.24-2.61-14.55,4.08-19.62,8.46-1.21,1-3.91,3.92-9.33,9.66-12.48,13.27-12.48,14.4-17.36,18.44-4.18,3.48-11.34,9.32-22.41,12.25a53.1,53.1,0,0,1-10.19,1.66l-9.72-.33a6.15,6.15,0,0,0-6.53,5.69c-.08,2.82-.17,5.64-.25,8.46a6.13,6.13,0,0,0,6.13,6.08c3.61.11,7.22.24,10.82.36.57,1.63,1.38,4.11,2.14,7.17.57,2.27,2.25,9.51,2.35,24.38,0,4.64-.07,10.84-.67,18.2a108.39,108.39,0,0,1-4.33,31.24c-1.39,4.76-7.07,16.65-8,17.94-5.48,7.42-9.25,9.65-8.5,11.47.31.76,1.49,1.65,6,1.61,44.63,1.68,77.57,3.65,87,4,1.92.07,6.71.23,7.77-2,.78-1.59-.78-3.64-3-6.87-4.24-6.09-7.84-11.33-8.7-13.7a62.83,62.83,0,0,1-3.37-15.39c-.86-7.42-1.86-17.4-2.62-29.54a247.34,247.34,0,0,1,.32-25.32c.45-7.15,1.19-13.88,2.11-20.15q11,.61,21.95,1.28a6.13,6.13,0,0,0,6.67-5.48Z"/><path class="cls-1" d="M1063.49,203c-18.39-15.23-32.74-18.22-33.51-29.24-.53-7.49,5.34-17.08,13-17.83,22.81,2.2,4.48,16.49,8,25.59,3.06,7.92,17.38,11.61,27.7,10.06,17.72-.76,14.62-20.18,10.9-26.54-7.11-15.82-26.17-21.2-30.22-22.32a59.76,59.76,0,0,0-36.1,1.63c-26.42,7.42-41.8,47.95-23.25,72,15.84,21.41,45.34,29.42,55.57,46.39,9.62,16-7.54,33.85-22.81,19.16-8.66-12.25,12.55-29.9-22-42.11-35.81-11-44.92,27.37-19.25,49.74C1059.53,348.32,1143.23,257.8,1063.49,203Z"/><path class="cls-1" d="M900.28,139.09C853.49,134.9,813.56,165,811.16,205s31.75,74.61,76.22,78.6,84.27-24.06,89-63.85S947.06,143.25,900.28,139.09Zm17.29,74.43C914.31,247,901.49,273.09,888.93,272s-20.54-29.11-17.82-62.6,15.55-59.77,28.65-58.6S920.84,180.08,917.57,213.52Z"/><path class="cls-1" d="M601.81,99.72c-11.56,34.6,52.59,28.86,60.71-4.55,11.31-40.6-50.21-36.47-68.68-23.47C543,104,538.86,189.45,523,251.52c-29.78,2.69-19.41-69.68-19.31-93.68.29-4.08.6-7.77.89-11a34.57,34.57,0,0,1,1.94-8.41c.72-2.05,1.08-4.41-.21-6-14.86-4.81-35.17-.12-79.37.89a6.26,6.26,0,0,0-4.79,2.17c-1.6,2-1.35,4.65,3.64,7a31.18,31.18,0,0,0,5.78,2.42c14.82,4.52,25.76,16.21,28.54,30.46,8.59,44.62-6.21,119.87,52,104.73-2.74,37.37-50.57,81.68-94.57,73.56-15.27-2.19-30.19-9.82-29.6-13.48.36-2.22,6.14-1.33,12-5.8,20-17.17,3.51-41.49-11.09-46-21.24-10.53-51.4,3.19-51.12,30.94,3.41,54.75,70.05,66.43,101.7,63.58,75.55-10.15,90.2-59.19,108.1-113.63,15.87-53.87,20.72-133.4,52.6-170.43A1,1,0,0,1,601.81,99.72Z"/></g></svg>