<svg xmlns="http://www.w3.org/2000/svg" viewBox="0 0 1142 446"><defs><style>.cls-1{fill:#999;}.cls-2{fill:#020202;}</style></defs><g id="Capa_3" data-name="Capa 3"><path class="cls-1" d="M968.81,171.08c-13.68-28.54-8.86-57.6,15-80.07C997.51,116.52,994,147.69,968.81,171.08Z"/><path class="cls-1" d="M957.17,232.5c-23.82-23.67-26.62-52.84-12.69-80.5C965.8,166.07,972.49,207.83,957.17,232.5Z"/><path class="cls-2" d="M1006.68,154.63c-27.92,13.19-39.59,37.45-33.4,66.09C1002.18,206.8,1012.81,180.81,1006.68,154.63Z"/><path class="cls-2" d="M214.29,259.55c76.17-4.28,105.84-93.63,42.78-127.13a65.13,65.13,0,0,0-33.31-6.94c-31.2,1.61-62.54,3.91-93.52,8.45-16.1,2.36-32,4.12-47.42,9.44-8.57,2.95-16.85,7.07-23.33,13.11-7.9,7.36-11.32,16.8-12.27,26.89-1,10.88,1.37,22.35,8.27,31.13a33.31,33.31,0,0,0,13,10c26.94,13.53,60.73-11,46.63-38.44-4.58-5.76-11.55-8.08-18.67-9.92C89.67,174.4,81.33,172.72,80,165c-1.61-9,8.32-14.48,16.28-16.31,7.52-1.73,15.82-1.22,22.69,2a25,25,0,0,1,13.88,18.67c4,21.62,17.56,106.39,18.88,144.07a34.14,34.14,0,0,1-3.16,15.86c-2.06,4.34-4.6,7.33-9.8,13a4.75,4.75,0,0,0-1.38,5.45,4.25,4.25,0,0,0,.78,1.18,4.68,4.68,0,0,0,4.07,1.31q23.61-3.33,47.29-6.19c11-1.35,30.12-3.55,32.35-3.8,1.38-.17,11.49-.76,12.33-2.12a2.6,2.6,0,0,0,.29-1.43c-.1-5.7-5.56-8.94-9.13-12.59-5.08-5.2-7-8.06-9.7-14.79-5-12.27-7.75-26.51-7.35-43.52C208.28,265.83,208.46,259.9,214.29,259.55Zm-8-20.69a1.63,1.63,0,0,1-2.14-1.3c-1.83-14.05-4.77-48.63-4.58-50.08-.42-13.83-1.39-27.72,2.58-41.24a3.93,3.93,0,0,1,5.4-2.51C218.68,148.3,228.13,155,234.43,165a46.52,46.52,0,0,1,7,26.73c-.5,12.48-5.35,27.28-15.39,35.87C220.53,233.1,212.57,236.84,206.3,238.86Z"/><path class="cls-2" d="M342.36,319.47c4.77-.27,16-1,26.62-8.53a42.55,42.55,0,0,0,11.36-11.86s.22.48.58,1.24c2.75,5.93,8.12,17.1,18.18,27.39a81.45,81.45,0,0,0,18.22,13.94.05.05,0,0,0,0,0c16.23,6.78,28.57,5.57,34.65,4.41,7.35-1.42,19.6-5.38,19.74-10.43.06-2.65-3.22-4-9-8.37a72.36,72.36,0,0,1-16.6-17.53c-3-4.7-5.82-10.8-8.95-26.86-4.09-20.9-2.24-24.65-5.6-44-2.66-15.22-4-22.83-9.33-30.53-11.66-16.86-32.71-24.75-34-25.2-1.73-.69-39.15-14-66.4,4.25-9.7,6.48-22.37,20-18.13,29.84,2.56,6,10.23,8.29,13.47,9.27,14.11,4.28,32.05-1.44,33.92-8.79,1.62-6.4-9.68-11.3-7.08-18.17,1.17-3.09,4.67-5.32,7.72-5.74,6.83-1,13.33,6.83,14.75,8.56l.37.45c2.14,2.68,4.33,7.19,7.59,21A97.25,97.25,0,0,1,377.11,246a.3.3,0,0,1-.51.18c-9.83-9.65-24.68-15.27-40.83-14-26,1.94-48.25,25-46.45,47.78,1.49,19.16,18.95,30.43,21.11,31.81C324.05,320.32,338.16,319.7,342.36,319.47Zm14.56-70.17c11.32-.79,21.22,10.08,22.1,24.2s-7.42,26.13-18.54,26.91-21-10-22.09-24.08S345.6,250.09,356.92,249.3Z"/><path class="cls-2" d="M683.07,319c1-1.66-.7-4.45-1.93-6.12-1.12-1.29-2.55-3-4.08-5.17A78.17,78.17,0,0,1,671,297.47c-5-10.31-5.41-29.2-5.71-43.24-.22-10.23.2-18,.52-24.28.08-1.68.46-6.6,1.38-14.14a381.08,381.08,0,0,1,6.59-37.71c1.49-3,1.63-5.85.17-7.08-.45-.37-1.63-1.09-6.89.25a42,42,0,0,0-9.95,3.85q-8.31,5.41-16.58,10.87a77.31,77.31,0,0,1-15.35,7.92A79.46,79.46,0,0,1,611,197.85a94.52,94.52,0,0,1-12,1c-7.8.4-11,.16-11.66,1.62-.31.7-.17,2.09,3.26,5.06a32.13,32.13,0,0,1,8.68,6.08c5.7,5.66,8.86,12.25,9.35,21.68a413.22,413.22,0,0,1-.22,47.56c-.67,10.65-1.74,20.24-8.25,23.85-2.58,1.43-6.73,2.32-9.77,6.47-.38.51-3.41,4.64-1.8,6.68,1.22,1.56,3.65,1.43,3.91,1.41,44.92-.62,76.32.12,84,1C677.66,320.43,681.89,320.94,683.07,319Z"/><path class="cls-2" d="M811.36,199.45a6.14,6.14,0,0,0-6-6.27q-10.3-.63-20.62-1.21c4.2-17.86,6.94-32.05,8.69-42.08.75-4.29,1.65-9.84-1.25-11.62-4.24-2.6-14.55,4.08-19.62,8.46-1.21,1.05-3.91,3.93-9.33,9.67-12.48,13.27-12.48,14.39-17.36,18.44-4.18,3.47-11.34,9.31-22.41,12.25a53,53,0,0,1-10.19,1.65l-9.72-.32a6.15,6.15,0,0,0-6.53,5.68c-.08,2.82-.17,5.64-.25,8.47a6.13,6.13,0,0,0,6.13,6.07l10.82.37c.57,1.63,1.38,4.1,2.14,7.16.57,2.28,2.25,9.52,2.35,24.39,0,4.63-.07,10.84-.67,18.2A108.33,108.33,0,0,1,713.24,290c-1.39,4.77-7.07,16.66-8,17.95-5.48,7.42-9.25,9.65-8.5,11.47.31.75,1.49,1.64,6,1.6,44.63,1.68,77.57,3.65,87,4,1.92.08,6.71.23,7.77-2,.78-1.59-.78-3.65-3-6.88-4.24-6.09-7.84-11.33-8.7-13.69a62.8,62.8,0,0,1-3.37-15.4c-.86-7.42-1.86-17.4-2.62-29.53a247.31,247.31,0,0,1,.32-25.32c.45-7.16,1.19-13.89,2.11-20.15q11,.6,21.95,1.28a6.14,6.14,0,0,0,6.67-5.48Z"/><path class="cls-2" d="M1062.49,251c-18.39-15.23-32.74-18.22-33.51-29.23-.53-7.49,5.34-17.08,13-17.84,22.81,2.2,4.48,16.49,8,25.6,3.06,7.92,17.38,11.6,27.7,10,17.72-.75,14.62-20.17,10.9-26.54-7.11-15.82-26.17-21.2-30.22-22.31a59.78,59.78,0,0,0-36.1,1.62c-26.42,7.42-41.8,48-23.25,72,15.84,21.4,45.34,29.42,55.57,46.39,9.62,16-7.54,33.84-22.81,19.16-8.66-12.25,12.55-29.9-22-42.12-35.81-11-44.92,27.38-19.25,49.74C1058.53,396.26,1142.23,305.75,1062.49,251Z"/><path class="cls-2" d="M901.28,188c-46.79-4.19-86.72,25.91-89.12,65.87s31.75,74.61,76.22,78.6,84.27-24.06,89-63.85S948.06,192.19,901.28,188Zm17.29,74.44c-3.26,33.44-16.08,59.56-28.64,58.44s-20.54-29.1-17.82-62.6,15.55-59.77,28.65-58.6S921.84,229,918.57,262.47Z"/><path class="cls-2" d="M602.81,148.66c-11.56,34.6,52.59,28.86,60.71-4.55,11.31-40.59-50.21-36.47-68.68-23.46C544,152.91,539.86,238.4,524,300.47c-29.78,2.69-19.41-69.68-19.31-93.68.29-4.09.6-7.78.89-11a34.47,34.47,0,0,1,1.94-8.41c.72-2,1.08-4.41-.21-6-14.86-4.8-35.17-.11-79.37.89a6.3,6.3,0,0,0-4.79,2.18c-1.6,2-1.35,4.65,3.64,7a29.87,29.87,0,0,0,5.78,2.42c14.82,4.53,25.76,16.21,28.54,30.46,8.59,44.62-6.21,119.88,52,104.73-2.74,37.37-50.57,81.68-94.57,73.56-15.27-2.18-30.19-9.81-29.6-13.47.36-2.23,6.14-1.33,12-5.81,20-17.17,3.51-41.48-11.09-46-21.24-10.53-51.4,3.2-51.12,30.95,3.41,54.75,70.05,66.42,101.7,63.58,75.55-10.15,90.2-59.19,108.1-113.63,15.87-53.87,20.72-133.41,52.6-170.43C601.81,147.07,603.13,147.73,602.81,148.66Z"/><path class="cls-2" d="M664.1,345.46H650.6V361.7a15.56,15.56,0,0,0-12.33,15.69c0,10.14,9.7,17.31,20,17.31C671,394.7,683,384.39,683,370.33,683,353.19,670.2,345.46,664.1,345.46Zm-6.16,46c-6.78,0-16.36-4.65-16.36-14.79,0-5.66,4.26-10,9-11.6v22.8h3.19V364.45a2.14,2.14,0,0,1,.62-.06c7.11,0,10.58,7.17,10.58,10.09h3.2c0-6.9-6.72-13.17-14-13.17h-.45V348.54H664c2.86,0,15.85,5.71,15.85,21.85A21.57,21.57,0,0,1,657.94,391.45Z"/><path class="cls-2" d="M685.83,355.93v27.4H689l13.33-.06v-3.19H689v-9.19l10.47.06v-3.08L689,367.75v-8.68l13.33.06v-3.08L689,355.93Z"/><path class="cls-2" d="M707.57,362.77c0-1,.22-3.81,4.2-3.81,4.37,0,6.61,3.53,7,3.53v-4a10.52,10.52,0,0,0-6.89-2.74c-3.7,0-7.39,2.58-7.39,7.06,0,8.79,12.49,7.78,12.49,14,0,2-2.52,3.86-5.15,3.86-4.77,0-5.89-4.76-5.89-6.05h-3c0,7.34,6.05,9,9,9,3.58,0,8.12-2.12,8.12-6.77C720.06,367.64,707.57,368.82,707.57,362.77Z"/><path class="cls-2" d="M732.33,356.05h-10v27.39l3.19-.06h7.17c4.26,0,12.38-4.2,12.38-13.95S735.63,356.05,732.33,356.05Zm.22,24.19c-3.19,0-6.89-.05-7.06-.05V359.41h6.78c2.52,0,9.69,2.74,9.69,10.19A10.29,10.29,0,0,1,732.55,380.24Z"/><path class="cls-2" d="M747.84,355.93v27.4H751l13.33-.06v-3.19H751v-9.19l10.47.06v-3.08L751,367.75v-8.68l13.33.06v-3.08L751,355.93Z"/><path class="cls-2" d="M802.57,357.56a12.06,12.06,0,0,0-3.69-8.63,12.59,12.59,0,0,0-17.59,0,12,12,0,0,0-3.64,8.63,12.1,12.1,0,0,0,.5,3.53l2.74-.84a10.59,10.59,0,0,1-.39-2.69,9.54,9.54,0,0,1,9.58-9.41,9.41,9.41,0,0,1,9.52,9.35c0,3.31-4.59,8.12-4.59,8.12l-1,1.07-16.53,17.59v3.19h22.8v-3.19H782c3.87-4.09,13.39-14.06,16.87-18.15C800.39,364.34,802.57,361.42,802.57,357.56Z"/><path class="cls-2" d="M818.82,346.07c-3.48,0-6.72,2.13-9.13,6.11a30.09,30.09,0,0,0,0,29.13c2.41,4,5.65,6.16,9.13,6.16s6.66-2.18,9.13-6.16a30.52,30.52,0,0,0,0-29.13C825.48,348.2,822.24,346.07,818.82,346.07Zm6.78,32.49c-1.91,3.42-4.43,5.33-6.78,5.33s-4.88-1.91-6.78-5.21a24.15,24.15,0,0,1-3-11.71,26.06,26.06,0,0,1,3-12c1.9-3.48,4.37-5.49,6.78-5.49s4.82,2,6.78,5.43a25.14,25.14,0,0,1,3,11.87A24.74,24.74,0,0,1,825.6,378.56Z"/><path class="cls-2" d="M847.89,346.07c-3.47,0-6.72,2.13-9.13,6.11a30.16,30.16,0,0,0,0,29.13c2.41,4,5.66,6.16,9.13,6.16s6.67-2.18,9.13-6.16a30.52,30.52,0,0,0,0-29.13C854.56,348.2,851.31,346.07,847.89,346.07Zm6.78,32.49c-1.91,3.42-4.43,5.33-6.78,5.33s-4.87-1.91-6.78-5.21a24.15,24.15,0,0,1-3-11.71,26.06,26.06,0,0,1,3-12c1.91-3.48,4.37-5.49,6.78-5.49s4.82,2,6.78,5.43a25.14,25.14,0,0,1,3,11.87A24.74,24.74,0,0,1,854.67,378.56Z"/><path class="cls-2" d="M888,357.56a12,12,0,0,0-3.7-8.63,12.22,12.22,0,0,0-8.79-3.58,12.34,12.34,0,0,0-8.8,3.58,12.16,12.16,0,0,0-3.13,12.16l2.74-.84a10.59,10.59,0,0,1-.39-2.69,9.53,9.53,0,0,1,9.58-9.41A9.41,9.41,0,0,1,885,357.5c0,3.31-4.59,8.12-4.59,8.12l-1,1.07L863,384.28v3.19h22.8v-3.19H867.44c3.87-4.09,13.39-14.06,16.86-18.15C885.82,364.34,888,361.42,888,357.56Z"/><path class="cls-2" d="M374.13,113l.55,4.1a11.31,11.31,0,0,1,7-3.14c10.64-1.43,22.16,7,36.43,5.08A20,20,0,0,0,433,108.19l-3.2-1.62c-.81,1.24-4.43,7.55-12.39,8.62-12.43,1.68-22.79-5.86-34.05-5.19l-3.76-27.84,15.05-2s-.49-3.62-.52-3.83l-15,1.89-1.94-14.34,19.57-2.57s-.48-3.56-.51-3.76l-19.58,2.5-3.63.49,6.74,49.91A11.33,11.33,0,0,0,374.13,113Z"/><path class="cls-2" d="M421.31,101.16s-.45-3.55-.48-3.76l-11.36,1.3-3.83-30.11L402,69l4.32,34Z"/><path class="cls-2" d="M449.6,94.23c-5.44.55-7.32-5.27-7.48-6.87l-3.45.34c.92,9.16,8,10.49,11.42,10.15,4.09-.41,9-3.59,8.42-9.39-1.14-11.32-15.25-8.42-16-16-.13-1.26-.22-4.78,4.32-5.23,5-.51,8,3.64,8.44,3.6l-.51-5a11.64,11.64,0,0,0-8.21-2.63A8.49,8.49,0,0,0,439,72.85c1.11,11,15.24,8.28,16,16C455.25,91.33,452.6,93.93,449.6,94.23Z"/><path class="cls-2" d="M469.18,85.42l11.28-.92,4.62,10.13,3.78-.3-15-33.18-2.37.19-9.15,35.13,4-.32ZM473.4,69l5.33,11.62-8.52.69Z"/><path class="cls-2" d="M492.56,94.15c1-.06,10.2-.67,14.82-.94,4.94-.29,9-4.82,8.71-10.57-.44-7.44-5.71-8.47-5.75-9.17.14-.78,1.56-1.85,1.29-6.48a8.52,8.52,0,0,0-9.15-7.83l-12,.7,2,34.29Zm19.8-11.51a6.27,6.27,0,0,1-5.72,6.81l-10.72.63-.74-12.69c.77,0,9-.46,9.24-.47C508.27,76.69,512.09,78,512.36,82.64ZM503,63.21c.26,0,4.93.62,5.16,4.55a4.49,4.49,0,0,1-4.14,5l-9.05.53-.57-9.68Z"/><path class="cls-2" d="M535.39,92.5a15,15,0,0,0,11-5.51,18.33,18.33,0,0,0,4.14-12.51,18.55,18.55,0,0,0-5-12.21,15.1,15.1,0,0,0-11.36-4.74A14.92,14.92,0,0,0,523.25,63a18.84,18.84,0,0,0,.85,24.72A14.87,14.87,0,0,0,535.39,92.5Zm-1.06-31c6.68-.23,12.35,5.63,12.6,13.07s-5,13.67-11.68,13.9S523,82.88,522.71,75.43,527.65,61.76,534.33,61.53Z"/><path class="cls-2" d="M559,91.54,558.91,79s3.66-.17,6.62-.2c.58,0,1.22-.08,2-.15l7.06,12.72,3.6-.1-7.06-13.08c2.75-1.08,6.58-4.13,6.52-10.38a10.41,10.41,0,0,0-8.83-10.67l-13.76.12.31,34.28Zm8.34-30.43a6.74,6.74,0,0,1,6.56,6.76c0,5.41-4.44,7.06-7.14,7.09-1.16,0-7.2.13-7.91.14l-.12-13.84C561.26,61.17,566.59,61.12,567.36,61.11Z"/><path class="cls-2" d="M600.79,75.89l11.82.28s.09-3.59.1-3.8L600.89,72l.1-4.56.16-6.32,15.22.43s.09-3.66.1-3.87l-15.23-.5L597.58,57l-.83,34.35,3.67,0Z"/><path class="cls-2" d="M616.23,91.79l4.15-10.31,11.31.46,3.36,10.61,3.79.15L628,58l-2.38-.1L612.25,91.63ZM626.55,65.7l3.89,12.18-8.55-.35Z"/><polygon class="cls-2" points="647.87 66.08 656.66 80.12 667.01 66.94 665.16 94.63 668.88 94.88 671.1 60.67 667.45 60.35 657.12 73.32 648.33 59.21 648.33 59.14 644.68 58.83 642.39 93.11 646.11 93.36 647.87 66.08"/><polygon class="cls-2" points="681.68 61.47 678.04 61.09 675.09 95.32 678.81 95.64 681.68 61.47"/><path class="cls-2" d="M700.43,94.12l-11.37-1.28,3-30.2-3.64-.44L685,96.32l15,1.57Z"/><polygon class="cls-2" points="712.53 64.6 708.9 64.12 705.02 98.25 708.73 98.67 712.53 64.6"/><path class="cls-2" d="M716.32,99.46l5.06-9.89L732.59,91l2.4,10.87,3.76.49L731,66.81l-2.35-.31L712.37,98.94ZM728.94,74.4l2.77,12.48-8.48-1.11Z"/><path class="cls-2" d="M748.49,91.46s3.64.44,6.56.9c.57.09,1.22.12,2,.18l4.86,13.71,3.56.5-4.8-14.07c2.9-.6,7.18-3,8.16-9.16a10.43,10.43,0,0,0-7-12l-13.59-2.15-5.37,33.86,3.62.57Zm2.79-17.55c2.48.32,7.75,1.16,8.51,1.28a6.73,6.73,0,0,1,5.35,7.75c-.85,5.34-5.55,6.23-8.21,5.81l-7.82-1.17Z"/></g></svg>